<svg xmlns="http://www.w3.org/2000/svg" xmlns:xlink="http://www.w3.org/1999/xlink" width="500" zoomAndPan="magnify" viewBox="0 0 375 374.999991" height="500" preserveAspectRatio="xMidYMid meet" version="1.0"><defs><g/></defs><g fill="#fcfbfa" fill-opacity="1"><g transform="translate(91.637276, 205.499987)"><g><path d="M 37.910156 -21.558594 L 21.277344 -21.558594 L 21.277344 -14.613281 L 30.742188 -14.613281 C 29.902344 -8.792969 25.925781 -5.878906 21 -5.878906 C 14.109375 -5.878906 10.246094 -11.535156 10.246094 -19.933594 C 10.246094 -28.109375 14.054688 -33.652344 21 -33.652344 C 25.871094 -33.652344 28.78125 -30.964844 29.507812 -26.765625 L 37.628906 -27.269531 C 36.285156 -35.667969 30.40625 -40.820312 20.550781 -40.820312 C 9.910156 -40.820312 1.960938 -32.867188 1.960938 -19.933594 C 1.960938 -7 10.023438 1.289062 20.101562 1.289062 C 25.421875 1.289062 29.230469 -1.0625 31.246094 -4.253906 L 32.53125 0 L 37.910156 0 Z M 37.910156 -21.558594 "/></g></g></g><g fill="#fcfbfa" fill-opacity="1"><g transform="translate(133.183481, 205.499987)"><g><path d="M 17.804688 -29.675781 C 14.613281 -29.675781 12.261719 -27.996094 10.976562 -24.917969 L 11.085938 -28.894531 L 3.359375 -28.894531 L 3.359375 0 L 11.253906 0 L 11.253906 -14.054688 C 11.253906 -19.652344 13.605469 -22.398438 18.421875 -22.398438 C 18.980469 -22.398438 19.484375 -22.34375 20.046875 -22.285156 L 20.046875 -29.453125 C 19.261719 -29.621094 18.476562 -29.675781 17.804688 -29.675781 Z M 17.804688 -29.675781 "/></g></g></g><g fill="#fcfbfa" fill-opacity="1"><g transform="translate(154.348526, 205.499987)"><g><path d="M 16.574219 0.953125 C 25.253906 0.953125 31.355469 -5.597656 31.355469 -14.335938 C 31.355469 -23.070312 25.253906 -29.621094 16.574219 -29.621094 C 7.894531 -29.621094 1.792969 -23.070312 1.792969 -14.335938 C 1.792969 -5.597656 7.894531 0.953125 16.574219 0.953125 Z M 16.574219 -5.207031 C 12.152344 -5.207031 9.40625 -8.792969 9.40625 -14.335938 C 9.40625 -19.878906 12.152344 -23.460938 16.574219 -23.460938 C 21 -23.460938 23.742188 -19.878906 23.742188 -14.335938 C 23.742188 -8.792969 21 -5.207031 16.574219 -5.207031 Z M 16.574219 -5.207031 "/></g></g></g><g fill="#fcfbfa" fill-opacity="1"><g transform="translate(187.495901, 205.499987)"><g><path d="M 21.109375 -13.4375 C 21.109375 -9.128906 18.8125 -6.382812 15.453125 -6.382812 C 12.65625 -6.382812 11.253906 -8.289062 11.253906 -11.3125 L 11.253906 -28.894531 L 3.359375 -28.894531 L 3.359375 -9.519531 C 3.359375 -3.246094 6.832031 0.726562 12.824219 0.726562 C 16.519531 0.726562 19.261719 -0.785156 21.167969 -3.917969 L 21.277344 0 L 29.003906 0 L 29.003906 -28.894531 L 21.109375 -28.894531 Z M 21.109375 -13.4375 "/></g></g></g><g fill="#fcfbfa" fill-opacity="1"><g transform="translate(219.859378, 205.499987)"><g><path d="M 19.652344 -29.621094 C 15.566406 -29.621094 12.597656 -28.109375 10.640625 -25.140625 L 10.359375 -28.894531 L 3.359375 -28.894531 L 3.359375 11.421875 L 11.253906 11.421875 L 11.253906 -2.6875 C 13.160156 -0.28125 15.847656 0.953125 19.039062 0.953125 C 26.316406 0.953125 31.46875 -5.261719 31.46875 -14.558594 C 31.46875 -24.023438 26.207031 -29.621094 19.652344 -29.621094 Z M 17.359375 -5.992188 C 13.550781 -5.992188 10.863281 -9.351562 10.863281 -14.558594 C 10.863281 -19.765625 13.550781 -23.070312 17.359375 -23.070312 C 21.167969 -23.070312 23.855469 -19.820312 23.855469 -14.558594 C 23.855469 -9.238281 21.167969 -5.992188 17.359375 -5.992188 Z M 17.359375 -5.992188 "/></g></g></g><g fill="#fcfbfa" fill-opacity="1"><g transform="translate(253.118734, 205.499987)"><g><path d="M 15.453125 1.0625 C 23.238281 1.0625 28.277344 -2.464844 28.277344 -8.566406 C 28.277344 -13.046875 25.589844 -15.679688 19.820312 -16.855469 L 13.605469 -18.140625 C 11.535156 -18.589844 10.359375 -19.542969 10.359375 -21.054688 C 10.359375 -22.902344 12.039062 -24.132812 14.671875 -24.132812 C 17.636719 -24.132812 19.765625 -22.621094 20.15625 -20.101562 L 27.269531 -20.382812 C 26.542969 -26.039062 21.78125 -29.621094 14.78125 -29.621094 C 7.671875 -29.621094 3.023438 -25.925781 3.023438 -20.101562 C 3.023438 -15.679688 5.765625 -12.765625 11.421875 -11.648438 L 17.132812 -10.527344 C 19.765625 -10.023438 20.941406 -9.183594 20.941406 -7.617188 C 20.941406 -5.429688 18.703125 -4.421875 15.734375 -4.421875 C 11.984375 -4.421875 10.023438 -6.046875 9.574219 -8.902344 L 2.351562 -8.625 C 3.078125 -2.464844 7.558594 1.0625 15.453125 1.0625 Z M 15.453125 1.0625 "/></g></g></g></svg>