<svg xmlns="http://www.w3.org/2000/svg" xmlns:xlink="http://www.w3.org/1999/xlink" width="500" zoomAndPan="magnify" viewBox="0 0 375 374.999991" height="500" preserveAspectRatio="xMidYMid meet" version="1.0"><defs><g/></defs><g fill="#fcfbfa" fill-opacity="1"><g transform="translate(10.933937, 208.699981)"><g><path d="M 0.78125 -27.769531 L 0.78125 -22.621094 L 9.125 -22.621094 L 9.125 0 L 14.898438 0 L 14.898438 -22.621094 L 23.203125 -22.621094 L 23.203125 -27.769531 Z M 0.78125 -27.769531 "/></g></g></g><g fill="#fcfbfa" fill-opacity="1"><g transform="translate(34.918955, 208.699981)"><g><path d="M 21.488281 -9.359375 C 21.488281 -16.417969 17.121094 -20.632812 11.152344 -20.632812 C 4.992188 -20.632812 1.246094 -16.027344 1.246094 -10.140625 C 1.246094 -3.976562 5.070312 0.664062 11.738281 0.664062 C 16.261719 0.664062 19.617188 -1.441406 20.980469 -5.8125 L 15.523438 -6.199219 C 14.859375 -4.445312 13.53125 -3.589844 11.621094 -3.589844 C 8.890625 -3.589844 7.136719 -5.382812 6.902344 -8.425781 L 21.488281 -8.425781 Z M 11.347656 -16.613281 C 13.84375 -16.613281 15.484375 -14.976562 15.796875 -12.167969 L 6.863281 -12.167969 C 7.136719 -14.9375 8.851562 -16.613281 11.347656 -16.613281 Z M 11.347656 -16.613281 "/></g></g></g><g fill="#fcfbfa" fill-opacity="1"><g transform="translate(57.655972, 208.699981)"><g><path d="M 7.839844 0 L 7.839844 -27.769531 L 2.339844 -27.769531 L 2.339844 0 Z M 7.839844 0 "/></g></g></g><g fill="#fcfbfa" fill-opacity="1"><g transform="translate(67.834976, 208.699981)"><g><path d="M 21.488281 -9.359375 C 21.488281 -16.417969 17.121094 -20.632812 11.152344 -20.632812 C 4.992188 -20.632812 1.246094 -16.027344 1.246094 -10.140625 C 1.246094 -3.976562 5.070312 0.664062 11.738281 0.664062 C 16.261719 0.664062 19.617188 -1.441406 20.980469 -5.8125 L 15.523438 -6.199219 C 14.859375 -4.445312 13.53125 -3.589844 11.621094 -3.589844 C 8.890625 -3.589844 7.136719 -5.382812 6.902344 -8.425781 L 21.488281 -8.425781 Z M 11.347656 -16.613281 C 13.84375 -16.613281 15.484375 -14.976562 15.796875 -12.167969 L 6.863281 -12.167969 C 7.136719 -14.9375 8.851562 -16.613281 11.347656 -16.613281 Z M 11.347656 -16.613281 "/></g></g></g><g fill="#fcfbfa" fill-opacity="1"><g transform="translate(90.571994, 208.699981)"><g><path d="M 15.757812 -17.628906 C 14.429688 -19.617188 12.441406 -20.632812 9.867188 -20.632812 C 4.914062 -20.632812 1.246094 -16.847656 1.246094 -10.453125 C 1.246094 -4.210938 4.835938 0 9.867188 0 C 12.128906 0 13.960938 -0.820312 15.328125 -2.457031 L 15.328125 0.3125 C 15.328125 2.847656 14.3125 4.328125 11.113281 4.328125 C 8.734375 4.328125 7.371094 3.511719 7.058594 1.636719 L 1.988281 1.636719 C 2.378906 5.851562 5.460938 8.425781 11.230469 8.425781 C 17.277344 8.425781 20.824219 5.539062 20.824219 0.234375 L 20.824219 -20.125 L 15.949219 -20.125 Z M 11.074219 -4.679688 C 8.425781 -4.679688 6.550781 -6.863281 6.550781 -10.453125 C 6.550781 -14 8.425781 -16.222656 11.074219 -16.222656 C 13.726562 -16.222656 15.601562 -13.960938 15.601562 -10.453125 C 15.601562 -6.941406 13.726562 -4.679688 11.074219 -4.679688 Z M 11.074219 -4.679688 "/></g></g></g><g fill="#fcfbfa" fill-opacity="1"><g transform="translate(113.738015, 208.699981)"><g><path d="M 12.402344 -20.671875 C 10.179688 -20.671875 8.539062 -19.5 7.644531 -17.355469 L 7.722656 -20.125 L 2.339844 -20.125 L 2.339844 0 L 7.839844 0 L 7.839844 -9.789062 C 7.839844 -13.6875 9.476562 -15.601562 12.832031 -15.601562 C 13.222656 -15.601562 13.570312 -15.5625 13.960938 -15.523438 L 13.960938 -20.515625 C 13.414062 -20.632812 12.871094 -20.671875 12.402344 -20.671875 Z M 12.402344 -20.671875 "/></g></g></g><g fill="#fcfbfa" fill-opacity="1"><g transform="translate(128.48003, 208.699981)"><g><path d="M 20.164062 0 C 19.578125 -1.015625 19.382812 -2.339844 19.382812 -4.210938 L 19.382812 -13.105469 C 19.382812 -18.058594 16.457031 -20.59375 10.6875 -20.59375 C 5.265625 -20.59375 2.496094 -18.523438 2.105469 -14.117188 L 7.136719 -14.039062 C 7.410156 -15.910156 8.464844 -16.691406 10.726562 -16.691406 C 12.910156 -16.691406 14.117188 -15.988281 14.117188 -14.507812 L 14.117188 -13.027344 L 7.097656 -11.621094 C 3.042969 -10.804688 0.976562 -8.734375 0.976562 -5.539062 C 0.976562 -1.871094 3.703125 0.585938 7.957031 0.585938 C 10.609375 0.585938 12.792969 -0.390625 14.15625 -2.027344 C 14.273438 -1.324219 14.429688 -0.703125 14.585938 0 Z M 9.515625 -3.472656 C 7.488281 -3.472656 6.355469 -4.445312 6.355469 -5.890625 C 6.355469 -7.214844 7.292969 -8.074219 8.96875 -8.425781 L 14.117188 -9.515625 L 14.117188 -8.035156 C 14.117188 -5.070312 12.128906 -3.472656 9.515625 -3.472656 Z M 9.515625 -3.472656 "/></g></g></g><g fill="#fcfbfa" fill-opacity="1"><g transform="translate(150.203044, 208.699981)"><g><path d="M 24.960938 -20.632812 C 22.230469 -20.632812 20.320312 -19.460938 19.03125 -17.003906 C 18.136719 -19.265625 16.144531 -20.632812 13.261719 -20.632812 C 10.84375 -20.632812 9.046875 -19.617188 7.800781 -17.550781 L 7.722656 -20.125 L 2.339844 -20.125 L 2.339844 0 L 7.839844 0 L 7.839844 -10.765625 C 7.839844 -13.765625 9.28125 -15.679688 11.425781 -15.679688 C 13.339844 -15.679688 14.117188 -14.15625 14.117188 -12.363281 L 14.117188 0 L 19.617188 0 L 19.617188 -10.765625 C 19.617188 -13.765625 21.058594 -15.679688 23.203125 -15.679688 C 25.117188 -15.679688 25.894531 -14.15625 25.894531 -12.363281 L 25.894531 0 L 31.394531 0 L 31.394531 -13.453125 C 31.394531 -17.667969 29.132812 -20.632812 24.960938 -20.632812 Z M 24.960938 -20.632812 "/></g></g></g><g fill="#fcfbfa" fill-opacity="1"><g transform="translate(183.938073, 208.699981)"><g/></g></g><g fill="#fcfbfa" fill-opacity="1"><g transform="translate(193.688084, 208.699981)"><g><path d="M 14.273438 0.898438 C 21.019531 0.898438 25.546875 -2.730469 26.011719 -9.085938 L 20.554688 -9.085938 C 20.125 -6.433594 18.328125 -4.09375 14.625 -4.09375 C 9.789062 -4.09375 7.136719 -8.035156 7.136719 -13.882812 C 7.136719 -19.539062 9.789062 -23.398438 14.625 -23.398438 C 18.058594 -23.398438 20.085938 -21.488281 20.554688 -18.5625 L 26.050781 -18.5625 C 25.546875 -24.648438 21.136719 -28.390625 14.351562 -28.390625 C 6.941406 -28.390625 1.363281 -22.855469 1.363281 -13.882812 C 1.363281 -4.875 6.863281 0.898438 14.273438 0.898438 Z M 14.273438 0.898438 "/></g></g></g><g fill="#fcfbfa" fill-opacity="1"><g transform="translate(220.715113, 208.699981)"><g><path d="M 13.609375 -20.632812 C 11.035156 -20.632812 9.164062 -19.578125 7.839844 -17.433594 L 7.839844 -27.769531 L 2.339844 -27.769531 L 2.339844 0 L 7.839844 0 L 7.839844 -10.765625 C 7.839844 -13.765625 9.4375 -15.679688 11.777344 -15.679688 C 13.726562 -15.679688 14.703125 -14.351562 14.703125 -12.246094 L 14.703125 0 L 20.203125 0 L 20.203125 -13.492188 C 20.203125 -17.863281 17.785156 -20.632812 13.609375 -20.632812 Z M 13.609375 -20.632812 "/></g></g></g><g fill="#fcfbfa" fill-opacity="1"><g transform="translate(243.257134, 208.699981)"><g><path d="M 20.164062 0 C 19.578125 -1.015625 19.382812 -2.339844 19.382812 -4.210938 L 19.382812 -13.105469 C 19.382812 -18.058594 16.457031 -20.59375 10.6875 -20.59375 C 5.265625 -20.59375 2.496094 -18.523438 2.105469 -14.117188 L 7.136719 -14.039062 C 7.410156 -15.910156 8.464844 -16.691406 10.726562 -16.691406 C 12.910156 -16.691406 14.117188 -15.988281 14.117188 -14.507812 L 14.117188 -13.027344 L 7.097656 -11.621094 C 3.042969 -10.804688 0.976562 -8.734375 0.976562 -5.539062 C 0.976562 -1.871094 3.703125 0.585938 7.957031 0.585938 C 10.609375 0.585938 12.792969 -0.390625 14.15625 -2.027344 C 14.273438 -1.324219 14.429688 -0.703125 14.585938 0 Z M 9.515625 -3.472656 C 7.488281 -3.472656 6.355469 -4.445312 6.355469 -5.890625 C 6.355469 -7.214844 7.292969 -8.074219 8.96875 -8.425781 L 14.117188 -9.515625 L 14.117188 -8.035156 C 14.117188 -5.070312 12.128906 -3.472656 9.515625 -3.472656 Z M 9.515625 -3.472656 "/></g></g></g><g fill="#fcfbfa" fill-opacity="1"><g transform="translate(264.980147, 208.699981)"><g><path d="M 13.609375 -20.632812 C 11.035156 -20.632812 9.125 -19.578125 7.800781 -17.394531 L 7.722656 -20.125 L 2.339844 -20.125 L 2.339844 0 L 7.839844 0 L 7.839844 -10.765625 C 7.839844 -13.765625 9.4375 -15.679688 11.777344 -15.679688 C 13.726562 -15.679688 14.703125 -14.351562 14.703125 -12.246094 L 14.703125 0 L 20.203125 0 L 20.203125 -13.492188 C 20.203125 -17.863281 17.785156 -20.632812 13.609375 -20.632812 Z M 13.609375 -20.632812 "/></g></g></g><g fill="#fcfbfa" fill-opacity="1"><g transform="translate(287.522168, 208.699981)"><g><path d="M 13.609375 -20.632812 C 11.035156 -20.632812 9.125 -19.578125 7.800781 -17.394531 L 7.722656 -20.125 L 2.339844 -20.125 L 2.339844 0 L 7.839844 0 L 7.839844 -10.765625 C 7.839844 -13.765625 9.4375 -15.679688 11.777344 -15.679688 C 13.726562 -15.679688 14.703125 -14.351562 14.703125 -12.246094 L 14.703125 0 L 20.203125 0 L 20.203125 -13.492188 C 20.203125 -17.863281 17.785156 -20.632812 13.609375 -20.632812 Z M 13.609375 -20.632812 "/></g></g></g><g fill="#fcfbfa" fill-opacity="1"><g transform="translate(310.064189, 208.699981)"><g><path d="M 21.488281 -9.359375 C 21.488281 -16.417969 17.121094 -20.632812 11.152344 -20.632812 C 4.992188 -20.632812 1.246094 -16.027344 1.246094 -10.140625 C 1.246094 -3.976562 5.070312 0.664062 11.738281 0.664062 C 16.261719 0.664062 19.617188 -1.441406 20.980469 -5.8125 L 15.523438 -6.199219 C 14.859375 -4.445312 13.53125 -3.589844 11.621094 -3.589844 C 8.890625 -3.589844 7.136719 -5.382812 6.902344 -8.425781 L 21.488281 -8.425781 Z M 11.347656 -16.613281 C 13.84375 -16.613281 15.484375 -14.976562 15.796875 -12.167969 L 6.863281 -12.167969 C 7.136719 -14.9375 8.851562 -16.613281 11.347656 -16.613281 Z M 11.347656 -16.613281 "/></g></g></g><g fill="#fcfbfa" fill-opacity="1"><g transform="translate(332.801195, 208.699981)"><g><path d="M 7.839844 0 L 7.839844 -27.769531 L 2.339844 -27.769531 L 2.339844 0 Z M 7.839844 0 "/></g></g></g><g fill="#fcfbfa" fill-opacity="1"><g transform="translate(342.980211, 208.699981)"><g><path d="M 10.765625 0.742188 C 16.183594 0.742188 19.695312 -1.714844 19.695312 -5.96875 C 19.695312 -9.085938 17.824219 -10.921875 13.804688 -11.738281 L 9.476562 -12.636719 C 8.035156 -12.949219 7.214844 -13.609375 7.214844 -14.664062 C 7.214844 -15.949219 8.386719 -16.808594 10.21875 -16.808594 C 12.285156 -16.808594 13.765625 -15.757812 14.039062 -14 L 18.992188 -14.195312 C 18.484375 -18.136719 15.171875 -20.632812 10.296875 -20.632812 C 5.34375 -20.632812 2.105469 -18.058594 2.105469 -14 C 2.105469 -10.921875 4.015625 -8.890625 7.957031 -8.113281 L 11.933594 -7.332031 C 13.765625 -6.980469 14.585938 -6.394531 14.585938 -5.304688 C 14.585938 -3.78125 13.027344 -3.082031 10.960938 -3.082031 C 8.347656 -3.082031 6.980469 -4.210938 6.667969 -6.199219 L 1.636719 -6.007812 C 2.144531 -1.714844 5.265625 0.742188 10.765625 0.742188 Z M 10.765625 0.742188 "/></g></g></g></svg>