<svg xmlns="http://www.w3.org/2000/svg" xmlns:xlink="http://www.w3.org/1999/xlink" width="500" zoomAndPan="magnify" viewBox="0 0 375 374.999991" height="500" preserveAspectRatio="xMidYMid meet" version="1.0"><defs><g/></defs><g fill="#fcfbfa" fill-opacity="1"><g transform="translate(71.106028, 203.999987)"><g><path d="M 15.28125 -17.859375 C 14.726562 -19.171875 14.066406 -21 13.296875 -23.34375 C 12.535156 -25.695312 11.894531 -28.085938 11.375 -30.515625 L 11.3125 -30.515625 C 11.425781 -27.117188 11.484375 -24.019531 11.484375 -21.21875 L 11.484375 -19.3125 L 11.421875 -9.1875 C 11.421875 -6.875 11.328125 -5.191406 11.140625 -4.140625 C 12.367188 -4.253906 13.789062 -4.3125 15.40625 -4.3125 L 15.40625 0 L 2.625 0 L 2.625 -3.703125 C 3.632812 -3.734375 4.398438 -3.851562 4.921875 -4.0625 C 5.453125 -4.269531 5.863281 -4.707031 6.15625 -5.375 C 6.457031 -6.050781 6.609375 -7.113281 6.609375 -8.5625 L 6.9375 -30.015625 C 7.019531 -32.742188 7.097656 -34.425781 7.171875 -35.0625 L 2.96875 -34.890625 L 2.96875 -39.203125 L 15.34375 -39.203125 L 23.796875 -17.53125 C 24.359375 -16.070312 24.957031 -14.460938 25.59375 -12.703125 C 26.226562 -10.953125 26.675781 -9.613281 26.9375 -8.6875 L 26.984375 -8.6875 C 27.140625 -9.050781 27.550781 -10.207031 28.21875 -12.15625 C 28.75 -13.6875 29.21875 -14.992188 29.625 -16.078125 L 38.296875 -39.203125 L 51.234375 -39.203125 L 51.234375 -35.5 C 50.234375 -35.46875 49.453125 -35.347656 48.890625 -35.140625 C 48.328125 -34.929688 47.894531 -34.488281 47.59375 -33.8125 C 47.300781 -33.144531 47.171875 -32.082031 47.203125 -30.625 L 48.046875 -9.1875 C 48.160156 -7.28125 48.085938 -5.597656 47.828125 -4.140625 C 49.054688 -4.253906 50.472656 -4.3125 52.078125 -4.3125 L 52.078125 0 L 36.515625 0 L 36.515625 -3.703125 C 37.523438 -3.734375 38.296875 -3.851562 38.828125 -4.0625 C 39.367188 -4.269531 39.789062 -4.707031 40.09375 -5.375 C 40.394531 -6.050781 40.523438 -7.113281 40.484375 -8.5625 L 40.046875 -20.4375 L 39.921875 -22.5625 C 39.734375 -26.1875 39.625 -28.707031 39.59375 -30.125 L 39.53125 -30.125 L 28.0625 0.5625 L 22.84375 0.5625 Z M 15.28125 -17.859375 "/></g></g></g><g fill="#fcfbfa" fill-opacity="1"><g transform="translate(125.530428, 203.999987)"><g><path d="M 13.890625 0.890625 C 10.566406 0.890625 8.1875 -0.078125 6.75 -2.015625 C 5.3125 -3.953125 4.59375 -7.109375 4.59375 -11.484375 L 4.59375 -17.921875 C 4.59375 -19.484375 4.648438 -21.109375 4.765625 -22.796875 L 0.84375 -22.625 L 0.84375 -26.875 C 3.195312 -26.875 5.097656 -27.039062 6.546875 -27.375 C 8.003906 -27.71875 8.976562 -28.113281 9.46875 -28.5625 L 12.546875 -28.5625 L 12.546875 -11.421875 C 12.546875 -8.960938 12.863281 -7.148438 13.5 -5.984375 C 14.132812 -4.828125 15.140625 -4.25 16.515625 -4.25 C 17.453125 -4.25 18.414062 -4.507812 19.40625 -5.03125 C 20.394531 -5.5625 21.222656 -6.195312 21.890625 -6.9375 L 21.890625 -17.921875 C 21.890625 -19.671875 21.96875 -21.296875 22.125 -22.796875 L 18.203125 -22.625 L 18.203125 -26.875 C 20.554688 -26.875 22.453125 -27.039062 23.890625 -27.375 C 25.328125 -27.71875 26.285156 -28.113281 26.765625 -28.5625 L 29.84375 -28.5625 L 29.84375 -9.015625 C 29.84375 -7.222656 29.769531 -5.582031 29.625 -4.09375 C 30.820312 -4.195312 32.035156 -4.25 33.265625 -4.25 L 33.265625 0 L 22.625 0 L 22.28125 -2.90625 L 22.234375 -2.90625 C 20.847656 -1.71875 19.507812 -0.785156 18.21875 -0.109375 C 16.9375 0.554688 15.492188 0.890625 13.890625 0.890625 Z M 13.890625 0.890625 "/></g></g></g><g fill="#fcfbfa" fill-opacity="1"><g transform="translate(160.133594, 203.999987)"><g><path d="M 15.171875 0.890625 C 13.566406 0.890625 12 0.679688 10.46875 0.265625 C 8.9375 -0.140625 7.742188 -0.65625 6.890625 -1.28125 L 6.828125 -1.28125 L 7 0.390625 L 2.75 0.390625 L 2.515625 -9.234375 L 6.15625 -9.234375 C 6.34375 -7.515625 7.25 -6.066406 8.875 -4.890625 C 10.5 -3.722656 12.488281 -3.140625 14.84375 -3.140625 C 15.882812 -3.140625 16.785156 -3.378906 17.546875 -3.859375 C 18.316406 -4.347656 18.703125 -5.039062 18.703125 -5.9375 C 18.703125 -6.601562 18.457031 -7.160156 17.96875 -7.609375 C 17.488281 -8.054688 16.910156 -8.429688 16.234375 -8.734375 C 15.566406 -9.035156 14.222656 -9.578125 12.203125 -10.359375 C 9.816406 -11.296875 8.023438 -12.0625 6.828125 -12.65625 C 5.640625 -13.25 4.566406 -14.132812 3.609375 -15.3125 C 2.660156 -16.488281 2.1875 -18.007812 2.1875 -19.875 C 2.1875 -21.40625 2.566406 -22.851562 3.328125 -24.21875 C 4.097656 -25.582031 5.273438 -26.703125 6.859375 -27.578125 C 8.441406 -28.453125 10.394531 -28.890625 12.71875 -28.890625 C 13.800781 -28.890625 14.972656 -28.722656 16.234375 -28.390625 C 17.503906 -28.054688 18.570312 -27.585938 19.4375 -26.984375 L 19.484375 -26.984375 L 19.4375 -28.609375 L 23.6875 -28.609375 L 23.6875 -18.703125 L 20.046875 -18.703125 C 19.710938 -20.640625 18.851562 -22.164062 17.46875 -23.28125 C 16.09375 -24.40625 14.394531 -24.96875 12.375 -24.96875 C 11.332031 -24.96875 10.457031 -24.722656 9.75 -24.234375 C 9.039062 -23.753906 8.6875 -23.015625 8.6875 -22.015625 C 8.6875 -20.960938 9.09375 -20.179688 9.90625 -19.671875 C 10.726562 -19.171875 12.113281 -18.601562 14.0625 -17.96875 C 14.28125 -17.9375 14.765625 -17.789062 15.515625 -17.53125 C 18.679688 -16.40625 21.113281 -15.097656 22.8125 -13.609375 C 24.519531 -12.117188 25.375 -10.160156 25.375 -7.734375 C 25.375 -5.859375 24.894531 -4.273438 23.9375 -2.984375 C 22.988281 -1.703125 21.738281 -0.734375 20.1875 -0.078125 C 18.632812 0.566406 16.960938 0.890625 15.171875 0.890625 Z M 15.171875 0.890625 "/></g></g></g><g fill="#fcfbfa" fill-opacity="1"><g transform="translate(187.289804, 203.999987)"><g><path d="M 1.40625 -3.640625 C 2.40625 -3.640625 3.140625 -3.832031 3.609375 -4.21875 C 4.078125 -4.613281 4.375 -5.144531 4.5 -5.8125 C 4.632812 -6.488281 4.703125 -7.425781 4.703125 -8.625 L 4.703125 -31.640625 C 4.703125 -33.429688 4.773438 -35.054688 4.921875 -36.515625 L 1.015625 -36.34375 L 1.015625 -40.59375 C 3.359375 -40.59375 5.257812 -40.757812 6.71875 -41.09375 C 8.175781 -41.4375 9.144531 -41.832031 9.625 -42.28125 L 12.65625 -42.28125 L 12.65625 -25.765625 C 13.738281 -26.617188 15.082031 -27.351562 16.6875 -27.96875 C 18.289062 -28.582031 19.671875 -28.890625 20.828125 -28.890625 C 24.191406 -28.890625 26.597656 -27.921875 28.046875 -25.984375 C 29.503906 -24.046875 30.253906 -20.890625 30.296875 -16.515625 L 30.296875 -9.015625 C 30.296875 -7.222656 30.222656 -5.582031 30.078125 -4.09375 C 31.265625 -4.195312 32.476562 -4.25 33.71875 -4.25 L 33.71875 0 L 18.984375 0 L 18.984375 -3.640625 C 20.398438 -3.640625 21.3125 -4.03125 21.71875 -4.8125 C 22.132812 -5.59375 22.34375 -6.863281 22.34375 -8.625 L 22.28125 -16.578125 C 22.28125 -19.035156 21.914062 -20.84375 21.1875 -22 C 20.46875 -23.164062 19.320312 -23.75 17.75 -23.75 C 16.851562 -23.75 15.9375 -23.550781 15 -23.15625 C 14.070312 -22.757812 13.289062 -22.265625 12.65625 -21.671875 L 12.65625 -9.015625 C 12.65625 -7.222656 12.582031 -5.582031 12.4375 -4.09375 C 13.664062 -4.195312 14.878906 -4.25 16.078125 -4.25 L 16.078125 0 L 1.40625 0 Z M 1.40625 -3.640625 "/></g></g></g><g fill="#fcfbfa" fill-opacity="1"><g transform="translate(222.060946, 203.999987)"><g><path d="M 9.296875 0.890625 C 6.941406 0.890625 5.082031 0.191406 3.71875 -1.203125 C 2.363281 -2.597656 1.6875 -4.378906 1.6875 -6.546875 C 1.6875 -9.835938 3.210938 -12.332031 6.265625 -14.03125 C 9.328125 -15.726562 13.003906 -16.671875 17.296875 -16.859375 L 17.296875 -19.765625 C 17.296875 -23.160156 16.03125 -24.859375 13.5 -24.859375 C 11.851562 -24.859375 10.507812 -24.335938 9.46875 -23.296875 C 9.914062 -22.773438 10.140625 -22.066406 10.140625 -21.171875 C 10.140625 -20.273438 9.828125 -19.472656 9.203125 -18.765625 C 8.585938 -18.054688 7.6875 -17.703125 6.5 -17.703125 C 5.375 -17.703125 4.492188 -18.0625 3.859375 -18.78125 C 3.222656 -19.507812 2.90625 -20.414062 2.90625 -21.5 C 2.90625 -22.957031 3.425781 -24.242188 4.46875 -25.359375 C 5.519531 -26.484375 6.953125 -27.351562 8.765625 -27.96875 C 10.578125 -28.582031 12.566406 -28.890625 14.734375 -28.890625 C 21.640625 -28.890625 25.09375 -25.328125 25.09375 -18.203125 L 25.03125 -9.015625 C 25.03125 -7.222656 24.957031 -5.582031 24.8125 -4.09375 C 26.039062 -4.195312 27.253906 -4.25 28.453125 -4.25 L 28.453125 0 L 17.859375 0 C 17.785156 -0.488281 17.710938 -1.347656 17.640625 -2.578125 L 17.578125 -2.578125 C 15.304688 -0.265625 12.546875 0.890625 9.296875 0.890625 Z M 12.828125 -4.59375 C 14.503906 -4.59375 15.976562 -5.265625 17.25 -6.609375 L 17.25 -12.875 C 15.039062 -12.65625 13.21875 -12.097656 11.78125 -11.203125 C 10.34375 -10.304688 9.625 -9.09375 9.625 -7.5625 C 9.625 -6.550781 9.929688 -5.800781 10.546875 -5.3125 C 11.171875 -4.832031 11.929688 -4.59375 12.828125 -4.59375 Z M 12.828125 -4.59375 "/></g></g></g><g fill="#fcfbfa" fill-opacity="1"><g transform="translate(251.400849, 203.999987)"><g><path d="M 13.390625 0.890625 C 7.554688 0.890625 4.640625 -2.691406 4.640625 -9.859375 L 4.765625 -23.359375 L 0.953125 -23.359375 L 0.953125 -28 C 2.148438 -28 3.28125 -28.367188 4.34375 -29.109375 C 5.40625 -29.859375 6.304688 -30.773438 7.046875 -31.859375 C 7.796875 -32.941406 8.320312 -33.988281 8.625 -35 L 12.765625 -35 L 12.71875 -28 L 19.828125 -28 L 19.828125 -23.6875 L 12.71875 -23.515625 L 12.65625 -9.75 C 12.65625 -6.125 13.773438 -4.3125 16.015625 -4.3125 C 17.804688 -4.3125 19.503906 -5.429688 21.109375 -7.671875 L 23.796875 -5.15625 C 22.046875 -2.570312 20.289062 -0.914062 18.53125 -0.1875 C 16.78125 0.53125 15.066406 0.890625 13.390625 0.890625 Z M 13.390625 0.890625 "/></g></g></g><g fill="#fcfbfa" fill-opacity="1"><g transform="translate(274.525615, 203.999987)"><g><path d="M 9.296875 0.890625 C 6.941406 0.890625 5.082031 0.191406 3.71875 -1.203125 C 2.363281 -2.597656 1.6875 -4.378906 1.6875 -6.546875 C 1.6875 -9.835938 3.210938 -12.332031 6.265625 -14.03125 C 9.328125 -15.726562 13.003906 -16.671875 17.296875 -16.859375 L 17.296875 -19.765625 C 17.296875 -23.160156 16.03125 -24.859375 13.5 -24.859375 C 11.851562 -24.859375 10.507812 -24.335938 9.46875 -23.296875 C 9.914062 -22.773438 10.140625 -22.066406 10.140625 -21.171875 C 10.140625 -20.273438 9.828125 -19.472656 9.203125 -18.765625 C 8.585938 -18.054688 7.6875 -17.703125 6.5 -17.703125 C 5.375 -17.703125 4.492188 -18.0625 3.859375 -18.78125 C 3.222656 -19.507812 2.90625 -20.414062 2.90625 -21.5 C 2.90625 -22.957031 3.425781 -24.242188 4.46875 -25.359375 C 5.519531 -26.484375 6.953125 -27.351562 8.765625 -27.96875 C 10.578125 -28.582031 12.566406 -28.890625 14.734375 -28.890625 C 21.640625 -28.890625 25.09375 -25.328125 25.09375 -18.203125 L 25.03125 -9.015625 C 25.03125 -7.222656 24.957031 -5.582031 24.8125 -4.09375 C 26.039062 -4.195312 27.253906 -4.25 28.453125 -4.25 L 28.453125 0 L 17.859375 0 C 17.785156 -0.488281 17.710938 -1.347656 17.640625 -2.578125 L 17.578125 -2.578125 C 15.304688 -0.265625 12.546875 0.890625 9.296875 0.890625 Z M 12.828125 -4.59375 C 14.503906 -4.59375 15.976562 -5.265625 17.25 -6.609375 L 17.25 -12.875 C 15.039062 -12.65625 13.21875 -12.097656 11.78125 -11.203125 C 10.34375 -10.304688 9.625 -9.09375 9.625 -7.5625 C 9.625 -6.550781 9.929688 -5.800781 10.546875 -5.3125 C 11.171875 -4.832031 11.929688 -4.59375 12.828125 -4.59375 Z M 12.828125 -4.59375 "/></g></g></g></svg>