<svg xmlns="http://www.w3.org/2000/svg" xmlns:xlink="http://www.w3.org/1999/xlink" zoomAndPan="magnify" viewBox="0 0 375 374.999991"  preserveAspectRatio="xMidYMid meet" version="1.0"><defs><g/></defs><g fill="#fff" fill-opacity="1"><g transform="translate(30.852124, 203.249987)"><g><path d="M 7.84375 -29.6875 L 7.84375 -2.515625 L 12.3125 -0.84375 L 12.3125 0 L 1.6875 0 L 1.6875 -0.84375 L 6.15625 -2.515625 L 6.15625 -37.234375 L 2.234375 -38.359375 L 2.234375 -39.203125 L 8.125 -39.203125 C 10.101562 -39.203125 11.648438 -38.847656 12.765625 -38.140625 C 13.890625 -37.429688 14.953125 -36.476562 15.953125 -35.28125 L 33.875 -14.28125 L 33.875 -36.6875 L 29.40625 -38.359375 L 29.40625 -39.203125 L 40.046875 -39.203125 L 40.046875 -38.359375 L 35.5625 -36.6875 L 35.5625 0.84375 L 33.875 0.84375 Z M 7.84375 -29.6875 "/></g></g></g><g fill="#fff" fill-opacity="1"><g transform="translate(72.286337, 203.249987)"><g><path d="M 17.359375 0.84375 C 12.578125 0.84375 8.859375 -0.472656 6.203125 -3.109375 C 3.554688 -5.742188 2.234375 -9.375 2.234375 -14 C 2.234375 -17.019531 2.8125 -19.648438 3.96875 -21.890625 C 5.132812 -24.128906 6.75 -25.847656 8.8125 -27.046875 C 10.882812 -28.242188 13.265625 -28.84375 15.953125 -28.84375 C 18.640625 -28.84375 21 -28.335938 23.03125 -27.328125 C 25.070312 -26.316406 26.644531 -24.960938 27.75 -23.265625 C 28.851562 -21.566406 29.40625 -19.691406 29.40625 -17.640625 C 29.40625 -16.703125 29.3125 -15.898438 29.125 -15.234375 L 28.84375 -14.28125 C 27.238281 -13.945312 25.5 -13.664062 23.625 -13.4375 C 19.707031 -12.875 15.753906 -12.59375 11.765625 -12.59375 C 11.765625 -8.269531 12.359375 -5.179688 13.546875 -3.328125 C 14.742188 -1.484375 16.390625 -0.5625 18.484375 -0.5625 C 19.929688 -0.5625 21.28125 -0.90625 22.53125 -1.59375 C 23.789062 -2.28125 24.78125 -3.191406 25.5 -4.328125 C 26.226562 -5.472656 26.59375 -6.644531 26.59375 -7.84375 L 28 -7.84375 C 28 -6.34375 27.550781 -4.921875 26.65625 -3.578125 C 25.757812 -2.234375 24.507812 -1.160156 22.90625 -0.359375 C 21.300781 0.441406 19.453125 0.84375 17.359375 0.84375 Z M 11.765625 -14 C 14.148438 -14 16.085938 -14.09375 17.578125 -14.28125 C 18.210938 -14.320312 18.882812 -14.414062 19.59375 -14.5625 C 19.632812 -14.75 19.726562 -15.160156 19.875 -15.796875 C 20.0625 -16.722656 20.15625 -17.710938 20.15625 -18.765625 C 20.15625 -21.859375 19.742188 -24.125 18.921875 -25.5625 C 18.109375 -27 17.117188 -27.71875 15.953125 -27.71875 C 13.160156 -27.71875 11.765625 -23.144531 11.765625 -14 Z M 11.765625 -14 "/></g></g></g><g fill="#fff" fill-opacity="1"><g transform="translate(103.641956, 203.249987)"><g><path d="M 1.6875 -26.3125 L -1.125 -27.15625 L -1.125 -28 L 5.3125 -28 C 7.289062 -28 8.859375 -27.585938 10.015625 -26.765625 C 11.179688 -25.941406 12.132812 -24.765625 12.875 -23.234375 L 19.046875 -10.359375 L 22.234375 -18.53125 L 18.484375 -26.3125 L 15.6875 -27.15625 L 15.6875 -28 L 22.125 -28 C 24.101562 -28 25.671875 -27.585938 26.828125 -26.765625 C 27.984375 -25.941406 28.9375 -24.765625 29.6875 -23.234375 L 35.84375 -10.359375 L 41.71875 -25.484375 L 37.515625 -27.15625 L 37.515625 -28 L 47.875 -28 L 47.875 -27.15625 L 43.40625 -25.484375 L 33.046875 0.5625 L 31.359375 0.5625 L 23.078125 -16.6875 L 16.234375 0.5625 L 14.5625 0.5625 Z M 1.6875 -26.3125 "/></g></g></g><g fill="#fff" fill-opacity="1"><g transform="translate(150.395428, 203.249987)"><g><path d="M 15.40625 0.84375 C 13.082031 0.84375 11.007812 0.335938 9.1875 -0.671875 C 8.289062 -1.160156 7.5625 -1.679688 7 -2.234375 C 6.40625 -1.421875 5.753906 -0.789062 5.046875 -0.34375 C 4.703125 -0.113281 4.328125 0.09375 3.921875 0.28125 L 2.515625 0.28125 L 2.515625 -9.234375 L 4.765625 -9.234375 C 5.242188 -7.671875 5.953125 -6.21875 6.890625 -4.875 C 8.867188 -2 11.332031 -0.5625 14.28125 -0.5625 C 15.84375 -0.5625 17.023438 -0.941406 17.828125 -1.703125 C 18.640625 -2.472656 19.046875 -3.585938 19.046875 -5.046875 C 19.046875 -6.273438 18.492188 -7.304688 17.390625 -8.140625 C 16.285156 -8.984375 14.554688 -10.019531 12.203125 -11.25 C 10.191406 -12.257812 8.5625 -13.164062 7.3125 -13.96875 C 6.0625 -14.769531 4.992188 -15.773438 4.109375 -16.984375 C 3.234375 -18.203125 2.796875 -19.632812 2.796875 -21.28125 C 2.796875 -23.519531 3.753906 -25.335938 5.671875 -26.734375 C 7.597656 -28.140625 10.5625 -28.84375 14.5625 -28.84375 C 16.539062 -28.84375 18.367188 -28.316406 20.046875 -27.265625 C 20.867188 -26.785156 21.578125 -26.285156 22.171875 -25.765625 C 22.660156 -26.429688 23.316406 -27.0625 24.140625 -27.65625 C 24.773438 -28.03125 25.144531 -28.238281 25.25 -28.28125 L 26.65625 -28.28125 L 26.65625 -18.765625 L 24.421875 -18.765625 C 23.859375 -20.367188 23.164062 -21.804688 22.34375 -23.078125 C 20.476562 -25.984375 18.257812 -27.4375 15.6875 -27.4375 C 14.675781 -27.4375 13.816406 -27.0625 13.109375 -26.3125 C 12.398438 -25.570312 12.046875 -24.640625 12.046875 -23.515625 C 12.046875 -22.097656 12.640625 -20.910156 13.828125 -19.953125 C 15.023438 -19.003906 16.835938 -17.914062 19.265625 -16.6875 C 21.242188 -15.675781 22.820312 -14.785156 24 -14.015625 C 25.175781 -13.253906 26.179688 -12.3125 27.015625 -11.1875 C 27.859375 -10.070312 28.28125 -8.769531 28.28125 -7.28125 C 28.28125 -1.863281 23.988281 0.84375 15.40625 0.84375 Z M 15.40625 0.84375 "/></g></g></g><g fill="#fff" fill-opacity="1"><g transform="translate(180.631209, 203.249987)"><g><path d="M 1.6875 10.359375 L 5.046875 9.515625 L 5.046875 -26.3125 L 1.6875 -27.15625 L 1.6875 -28 L 6.71875 -28 C 8.925781 -28 10.660156 -27.289062 11.921875 -25.875 C 12.410156 -25.3125 12.820312 -24.617188 13.15625 -23.796875 C 13.644531 -24.765625 14.265625 -25.601562 15.015625 -26.3125 C 16.691406 -28 18.78125 -28.84375 21.28125 -28.84375 C 23.476562 -28.84375 25.4375 -28.269531 27.15625 -27.125 C 28.875 -25.988281 30.238281 -24.3125 31.25 -22.09375 C 32.257812 -19.875 32.765625 -17.175781 32.765625 -14 C 32.765625 -9.21875 31.648438 -5.546875 29.421875 -2.984375 C 27.203125 -0.429688 24.207031 0.84375 20.4375 0.84375 C 18.644531 0.84375 17.078125 0.46875 15.734375 -0.28125 C 15.171875 -0.539062 14.59375 -0.914062 14 -1.40625 L 14 9.515625 L 17.359375 10.359375 L 17.359375 11.203125 L 1.6875 11.203125 Z M 18.203125 -0.84375 C 19.804688 -0.84375 21.046875 -1.773438 21.921875 -3.640625 C 22.796875 -5.503906 23.234375 -8.957031 23.234375 -14 C 23.234375 -18.8125 22.832031 -22.160156 22.03125 -24.046875 C 21.226562 -25.929688 20.234375 -26.875 19.046875 -26.875 C 17.617188 -26.875 16.347656 -26.128906 15.234375 -24.640625 C 14.742188 -24.003906 14.332031 -23.257812 14 -22.40625 L 14 -3.078125 C 14.519531 -2.554688 14.929688 -2.179688 15.234375 -1.953125 C 16.242188 -1.210938 17.234375 -0.84375 18.203125 -0.84375 Z M 18.203125 -0.84375 "/></g></g></g><g fill="#fff" fill-opacity="1"><g transform="translate(215.626324, 203.249987)"><g><path d="M 13.15625 0.84375 C 9.832031 0.84375 7.273438 0.132812 5.484375 -1.28125 C 3.691406 -2.707031 2.796875 -4.519531 2.796875 -6.71875 C 2.796875 -8.175781 3.113281 -9.613281 3.75 -11.03125 C 4.007812 -11.707031 4.347656 -12.320312 4.765625 -12.875 C 6.296875 -13.25 7.957031 -13.585938 9.75 -13.890625 C 13.78125 -14.554688 17.34375 -14.96875 20.4375 -15.125 L 20.4375 -16.796875 C 20.4375 -20.941406 19.929688 -23.796875 18.921875 -25.359375 C 17.921875 -26.929688 16.375 -27.71875 14.28125 -27.71875 C 13.5 -27.71875 12.828125 -27.625 12.265625 -27.4375 L 11.484375 -27.15625 L 11.484375 -18.765625 L 10.75 -18.59375 C 10.15625 -18.519531 9.648438 -18.484375 9.234375 -18.484375 C 7.972656 -18.484375 6.957031 -18.863281 6.1875 -19.625 C 5.425781 -20.394531 5.046875 -21.414062 5.046875 -22.6875 C 5.046875 -24.394531 5.910156 -25.847656 7.640625 -27.046875 C 9.378906 -28.242188 11.96875 -28.84375 15.40625 -28.84375 C 18.3125 -28.84375 20.816406 -28.328125 22.921875 -27.296875 C 25.035156 -26.273438 26.644531 -24.859375 27.75 -23.046875 C 28.851562 -21.234375 29.40625 -19.148438 29.40625 -16.796875 L 29.40625 -1.6875 L 32.765625 -0.84375 L 32.765625 0 L 27.71875 0 C 25.476562 0 23.742188 -0.691406 22.515625 -2.078125 C 21.992188 -2.628906 21.582031 -3.335938 21.28125 -4.203125 C 20.757812 -3.265625 20.144531 -2.425781 19.4375 -1.6875 C 17.75 0 15.65625 0.84375 13.15625 0.84375 Z M 15.40625 -1.125 C 16.78125 -1.125 18.03125 -1.867188 19.15625 -3.359375 C 19.5625 -3.921875 19.988281 -4.664062 20.4375 -5.59375 L 20.4375 -13.71875 C 18.71875 -13.71875 17.078125 -13.625 15.515625 -13.4375 C 14.359375 -13.289062 13.570312 -13.195312 13.15625 -13.15625 C 12.96875 -12.75 12.78125 -12.191406 12.59375 -11.484375 C 12.226562 -10.066406 12.046875 -8.664062 12.046875 -7.28125 C 12.046875 -5.1875 12.359375 -3.632812 12.984375 -2.625 C 13.617188 -1.625 14.425781 -1.125 15.40625 -1.125 Z M 15.40625 -1.125 "/></g></g></g><g fill="#fff" fill-opacity="1"><g transform="translate(249.5016, 203.249987)"><g><path d="M 1.6875 10.359375 L 5.046875 9.515625 L 5.046875 -26.3125 L 1.6875 -27.15625 L 1.6875 -28 L 6.71875 -28 C 8.925781 -28 10.660156 -27.289062 11.921875 -25.875 C 12.410156 -25.3125 12.820312 -24.617188 13.15625 -23.796875 C 13.644531 -24.765625 14.265625 -25.601562 15.015625 -26.3125 C 16.691406 -28 18.78125 -28.84375 21.28125 -28.84375 C 23.476562 -28.84375 25.4375 -28.269531 27.15625 -27.125 C 28.875 -25.988281 30.238281 -24.3125 31.25 -22.09375 C 32.257812 -19.875 32.765625 -17.175781 32.765625 -14 C 32.765625 -9.21875 31.648438 -5.546875 29.421875 -2.984375 C 27.203125 -0.429688 24.207031 0.84375 20.4375 0.84375 C 18.644531 0.84375 17.078125 0.46875 15.734375 -0.28125 C 15.171875 -0.539062 14.59375 -0.914062 14 -1.40625 L 14 9.515625 L 17.359375 10.359375 L 17.359375 11.203125 L 1.6875 11.203125 Z M 18.203125 -0.84375 C 19.804688 -0.84375 21.046875 -1.773438 21.921875 -3.640625 C 22.796875 -5.503906 23.234375 -8.957031 23.234375 -14 C 23.234375 -18.8125 22.832031 -22.160156 22.03125 -24.046875 C 21.226562 -25.929688 20.234375 -26.875 19.046875 -26.875 C 17.617188 -26.875 16.347656 -26.128906 15.234375 -24.640625 C 14.742188 -24.003906 14.332031 -23.257812 14 -22.40625 L 14 -3.078125 C 14.519531 -2.554688 14.929688 -2.179688 15.234375 -1.953125 C 16.242188 -1.210938 17.234375 -0.84375 18.203125 -0.84375 Z M 18.203125 -0.84375 "/></g></g></g><g fill="#fff" fill-opacity="1"><g transform="translate(284.496715, 203.249987)"><g><path d="M 17.359375 0.84375 C 12.578125 0.84375 8.859375 -0.472656 6.203125 -3.109375 C 3.554688 -5.742188 2.234375 -9.375 2.234375 -14 C 2.234375 -17.019531 2.8125 -19.648438 3.96875 -21.890625 C 5.132812 -24.128906 6.75 -25.847656 8.8125 -27.046875 C 10.882812 -28.242188 13.265625 -28.84375 15.953125 -28.84375 C 18.640625 -28.84375 21 -28.335938 23.03125 -27.328125 C 25.070312 -26.316406 26.644531 -24.960938 27.75 -23.265625 C 28.851562 -21.566406 29.40625 -19.691406 29.40625 -17.640625 C 29.40625 -16.703125 29.3125 -15.898438 29.125 -15.234375 L 28.84375 -14.28125 C 27.238281 -13.945312 25.5 -13.664062 23.625 -13.4375 C 19.707031 -12.875 15.753906 -12.59375 11.765625 -12.59375 C 11.765625 -8.269531 12.359375 -5.179688 13.546875 -3.328125 C 14.742188 -1.484375 16.390625 -0.5625 18.484375 -0.5625 C 19.929688 -0.5625 21.28125 -0.90625 22.53125 -1.59375 C 23.789062 -2.28125 24.78125 -3.191406 25.5 -4.328125 C 26.226562 -5.472656 26.59375 -6.644531 26.59375 -7.84375 L 28 -7.84375 C 28 -6.34375 27.550781 -4.921875 26.65625 -3.578125 C 25.757812 -2.234375 24.507812 -1.160156 22.90625 -0.359375 C 21.300781 0.441406 19.453125 0.84375 17.359375 0.84375 Z M 11.765625 -14 C 14.148438 -14 16.085938 -14.09375 17.578125 -14.28125 C 18.210938 -14.320312 18.882812 -14.414062 19.59375 -14.5625 C 19.632812 -14.75 19.726562 -15.160156 19.875 -15.796875 C 20.0625 -16.722656 20.15625 -17.710938 20.15625 -18.765625 C 20.15625 -21.859375 19.742188 -24.125 18.921875 -25.5625 C 18.109375 -27 17.117188 -27.71875 15.953125 -27.71875 C 13.160156 -27.71875 11.765625 -23.144531 11.765625 -14 Z M 11.765625 -14 "/></g></g></g><g fill="#fff" fill-opacity="1"><g transform="translate(315.852334, 203.249987)"><g><path d="M 2.234375 -0.84375 L 5.59375 -1.6875 L 5.59375 -26.3125 L 2.234375 -27.15625 L 2.234375 -28 L 7.28125 -28 C 9.476562 -28 11.210938 -27.289062 12.484375 -25.875 C 12.972656 -25.3125 13.382812 -24.617188 13.71875 -23.796875 C 14.28125 -24.617188 14.972656 -25.367188 15.796875 -26.046875 C 17.660156 -27.535156 19.75 -28.28125 22.0625 -28.28125 C 24.039062 -28.28125 25.523438 -27.820312 26.515625 -26.90625 C 27.503906 -25.988281 28 -24.671875 28 -22.953125 C 28 -21.691406 27.613281 -20.675781 26.84375 -19.90625 C 26.082031 -19.144531 25.066406 -18.765625 23.796875 -18.765625 C 23.273438 -18.765625 22.753906 -18.800781 22.234375 -18.875 L 21.5625 -19.046875 L 21.5625 -26.875 C 19.65625 -26.875 17.921875 -26.128906 16.359375 -24.640625 C 15.609375 -23.890625 15.007812 -23.144531 14.5625 -22.40625 L 14.5625 -1.6875 L 17.921875 -0.84375 L 17.921875 0 L 2.234375 0 Z M 2.234375 -0.84375 "/></g></g></g></svg>