<svg xmlns="http://www.w3.org/2000/svg" xmlns:xlink="http://www.w3.org/1999/xlink" width="500" zoomAndPan="magnify" viewBox="0 0 375 374.999991" height="500" preserveAspectRatio="xMidYMid meet" version="1.0"><defs><g/><clipPath id="ad45b83fbc"><path d="M 0.902344 136.253906 L 71.402344 136.253906 L 71.402344 218.753906 L 0.902344 218.753906 Z M 0.902344 136.253906 " clip-rule="nonzero"/></clipPath></defs><g clip-path="url(#ad45b83fbc)"><path fill="#e90f0f" d="M 53.113281 163.699219 L 48.449219 163.699219 L 51.222656 160.492188 C 51.859375 160.644531 52.515625 160.726562 53.203125 160.726562 C 57.839844 160.726562 61.625 156.960938 61.65625 152.324219 C 61.683594 147.660156 57.910156 143.84375 53.203125 143.824219 C 48.570312 143.824219 44.773438 147.589844 44.753906 152.222656 C 44.746094 153.417969 44.988281 154.601562 45.460938 155.683594 L 38.640625 163.699219 L 35.65625 163.699219 L 27.136719 153.164062 C 28.207031 151.433594 28.792969 149.429688 28.816406 147.375 C 28.835938 144.421875 27.703125 141.636719 25.625 139.542969 C 23.550781 137.4375 20.789062 136.273438 17.761719 136.253906 C 11.710938 136.253906 6.753906 141.183594 6.710938 147.246094 C 6.691406 150.199219 7.824219 152.984375 9.898438 155.089844 C 11.976562 157.191406 14.746094 158.355469 17.761719 158.378906 C 18.554688 158.378906 19.34375 158.296875 20.101562 158.132812 L 24.585938 163.722656 L 18.867188 163.722656 C 10.78125 163.699219 0.921875 166.140625 0.921875 182.847656 L 0.921875 200.507812 C 0.921875 210.386719 9 218.460938 18.875 218.460938 L 53.113281 218.460938 C 62.980469 218.460938 71.066406 210.386719 71.066406 200.507812 L 71.066406 182.847656 C 71.066406 168 61.199219 163.699219 53.113281 163.699219 Z M 54.914062 208.089844 L 17.074219 208.089844 C 14.292969 208.089844 11.945312 205.742188 11.945312 202.957031 L 11.964844 182.847656 L 11.964844 179.78125 C 12.066406 177.078125 14.363281 174.832031 17.074219 174.832031 L 54.914062 174.832031 C 57.699219 174.832031 60.046875 177.179688 60.046875 179.964844 L 60.027344 200.082031 L 60.046875 200.082031 L 60.046875 202.957031 C 60.046875 205.742188 57.699219 208.089844 54.914062 208.089844 Z M 54.914062 208.089844 " fill-opacity="1" fill-rule="nonzero"/></g><path fill="#e90f0f" d="M 28.359375 197.410156 C 28.339844 194.152344 28.320312 188.808594 28.296875 185.550781 C 28.277344 182.292969 30.71875 180.945312 33.511719 182.554688 C 36.292969 184.175781 40.949219 186.816406 43.730469 188.433594 C 46.515625 190.054688 46.574219 192.714844 43.804688 194.363281 C 41.03125 196.015625 36.34375 198.707031 33.570312 200.347656 C 30.808594 201.996094 28.371094 200.671875 28.359375 197.410156 Z M 28.359375 197.410156 " fill-opacity="1" fill-rule="nonzero"/><g fill="#e90f0f" fill-opacity="1"><g transform="translate(74.138188, 205.874986)"><g><path d="M 27.6875 0 L 4.390625 0 L 4.390625 -37.484375 L 13.765625 -37.484375 L 13.765625 -8.453125 L 27.6875 -8.453125 Z M 27.6875 0 "/></g></g></g><g fill="#e90f0f" fill-opacity="1"><g transform="translate(101.010387, 205.874986)"><g><path d="M 12.3125 0 L 3.375 0 L 3.375 -27.84375 L 12.3125 -27.84375 Z M 12.421875 -32.125 L 3.21875 -32.125 L 3.21875 -39.296875 L 12.421875 -39.296875 Z M 12.421875 -32.125 "/></g></g></g><g fill="#e90f0f" fill-opacity="1"><g transform="translate(114.660393, 205.874986)"><g><path d="M 15.796875 -10.234375 L 22.28125 -27.84375 L 31.4375 -27.84375 L 19.765625 0 L 11.78125 0 L 0.109375 -27.84375 L 9.3125 -27.84375 Z M 15.796875 -10.234375 "/></g></g></g><g fill="#e90f0f" fill-opacity="1"><g transform="translate(144.048561, 205.874986)"><g><path d="M 16.5 -28.546875 C 19.132812 -28.546875 21.582031 -27.9375 23.84375 -26.71875 C 26.113281 -25.507812 27.9375 -23.804688 29.3125 -21.609375 C 30.6875 -19.410156 31.375 -16.921875 31.375 -14.140625 C 31.375 -13.316406 31.285156 -12.367188 31.109375 -11.296875 L 10.4375 -11.296875 C 10.800781 -9.617188 11.515625 -8.316406 12.578125 -7.390625 C 13.648438 -6.460938 14.988281 -6 16.59375 -6 C 17.882812 -6 18.96875 -6.226562 19.84375 -6.6875 C 20.71875 -7.15625 21.457031 -7.851562 22.0625 -8.78125 L 30.578125 -8.78125 C 29.535156 -5.957031 27.800781 -3.671875 25.375 -1.921875 C 22.945312 -0.171875 19.988281 0.703125 16.5 0.703125 C 13.8125 0.703125 11.328125 0.0976562 9.046875 -1.109375 C 6.765625 -2.328125 4.9375 -4.039062 3.5625 -6.25 C 2.1875 -8.46875 1.5 -11.023438 1.5 -13.921875 C 1.5 -16.816406 2.1875 -19.367188 3.5625 -21.578125 C 4.9375 -23.796875 6.765625 -25.507812 9.046875 -26.71875 C 11.328125 -27.9375 13.8125 -28.546875 16.5 -28.546875 Z M 16.5 -21.796875 C 15 -21.796875 13.71875 -21.375 12.65625 -20.53125 C 11.601562 -19.695312 10.882812 -18.476562 10.5 -16.875 L 22.59375 -16.875 C 22.3125 -18.332031 21.648438 -19.515625 20.609375 -20.421875 C 19.578125 -21.335938 18.207031 -21.796875 16.5 -21.796875 Z M 16.5 -21.796875 "/></g></g></g><g fill="#000000" fill-opacity="1"><g transform="translate(178.488187, 205.874986)"><g><path d="M 25.96875 0 L 15.75 -12.75 L 13.765625 -12.75 L 13.765625 0 L 4.390625 0 L 4.390625 -37.484375 L 18.09375 -37.484375 C 21.0625 -37.484375 23.648438 -36.960938 25.859375 -35.921875 C 28.078125 -34.890625 29.789062 -33.425781 31 -31.53125 C 32.21875 -29.644531 32.828125 -27.46875 32.828125 -25 C 32.828125 -22.539062 32.21875 -20.382812 31 -18.53125 C 29.789062 -16.675781 28.0625 -15.25 25.8125 -14.25 L 37.328125 0 Z M 13.765625 -29.609375 L 13.765625 -20.453125 L 17.671875 -20.453125 C 19.453125 -20.453125 20.832031 -20.878906 21.8125 -21.734375 C 22.800781 -22.597656 23.296875 -23.6875 23.296875 -25 C 23.296875 -26.363281 22.800781 -27.472656 21.8125 -28.328125 C 20.832031 -29.179688 19.453125 -29.609375 17.671875 -29.609375 Z M 13.765625 -29.609375 "/></g></g></g><g fill="#000000" fill-opacity="1"><g transform="translate(212.854755, 205.874986)"><g><path d="M 12.3125 0 L 3.375 0 L 3.375 -27.84375 L 12.3125 -27.84375 Z M 12.421875 -32.125 L 3.21875 -32.125 L 3.21875 -39.296875 L 12.421875 -39.296875 Z M 12.421875 -32.125 "/></g></g></g><g fill="#000000" fill-opacity="1"><g transform="translate(226.504761, 205.874986)"><g><path d="M 15 0.703125 C 12.457031 0.703125 10.238281 0.28125 8.34375 -0.5625 C 6.457031 -1.40625 4.96875 -2.554688 3.875 -4.015625 C 2.789062 -5.484375 2.175781 -7.125 2.03125 -8.9375 L 10.5 -8.9375 C 10.601562 -8.082031 11.035156 -7.367188 11.796875 -6.796875 C 12.566406 -6.222656 13.613281 -5.9375 14.9375 -5.9375 C 16.082031 -5.9375 16.96875 -6.125 17.59375 -6.5 C 18.21875 -6.875 18.53125 -7.4375 18.53125 -8.1875 C 18.53125 -8.9375 18.109375 -9.5 17.265625 -9.875 C 16.429688 -10.25 15.117188 -10.617188 13.328125 -10.984375 C 11.191406 -11.441406 9.414062 -11.945312 8 -12.5 C 6.59375 -13.050781 5.367188 -13.941406 4.328125 -15.171875 C 3.296875 -16.410156 2.78125 -18.097656 2.78125 -20.234375 C 2.78125 -21.804688 3.28125 -23.21875 4.28125 -24.46875 C 5.28125 -25.71875 6.671875 -26.707031 8.453125 -27.4375 C 10.242188 -28.175781 12.265625 -28.546875 14.515625 -28.546875 C 16.578125 -28.546875 18.492188 -28.148438 20.265625 -27.359375 C 22.035156 -26.578125 23.472656 -25.472656 24.578125 -24.046875 C 25.679688 -22.617188 26.289062 -21.007812 26.40625 -19.21875 L 18.046875 -19.21875 C 17.972656 -20.039062 17.601562 -20.703125 16.9375 -21.203125 C 16.28125 -21.703125 15.414062 -21.953125 14.34375 -21.953125 C 13.382812 -21.953125 12.644531 -21.789062 12.125 -21.46875 C 11.613281 -21.144531 11.359375 -20.679688 11.359375 -20.078125 C 11.359375 -19.367188 11.757812 -18.84375 12.5625 -18.5 C 13.363281 -18.15625 14.675781 -17.769531 16.5 -17.34375 C 18.632812 -16.882812 20.40625 -16.382812 21.8125 -15.84375 C 23.226562 -15.3125 24.453125 -14.445312 25.484375 -13.25 C 26.523438 -12.050781 27.046875 -10.421875 27.046875 -8.359375 C 27.046875 -5.535156 25.957031 -3.316406 23.78125 -1.703125 C 21.601562 -0.0976562 18.675781 0.703125 15 0.703125 Z M 15 0.703125 "/></g></g></g><g fill="#000000" fill-opacity="1"><g transform="translate(253.751682, 205.874986)"><g><path d="M 20.40625 -28.546875 C 22.507812 -28.546875 24.398438 -28.046875 26.078125 -27.046875 C 27.753906 -26.046875 29.066406 -24.660156 30.015625 -22.890625 C 30.960938 -21.117188 31.4375 -19.113281 31.4375 -16.875 L 31.4375 0 L 22.484375 0 L 22.484375 -14.828125 C 22.484375 -16.578125 22.0625 -17.96875 21.21875 -19 C 20.382812 -20.039062 19.203125 -20.5625 17.671875 -20.5625 C 16.171875 -20.5625 14.945312 -20.035156 14 -18.984375 C 13.050781 -17.929688 12.578125 -16.546875 12.578125 -14.828125 L 12.578125 0 L 3.640625 0 L 3.640625 -38.546875 L 12.578125 -38.546875 L 12.578125 -25.546875 C 14.753906 -27.546875 17.363281 -28.546875 20.40625 -28.546875 Z M 20.40625 -28.546875 "/></g></g></g><g fill="#000000" fill-opacity="1"><g transform="translate(286.244661, 205.874986)"><g><path d="M 20.78125 -19.96875 L 14.40625 -19.96875 L 14.40625 -12.15625 C 14.40625 -10.832031 14.769531 -9.796875 15.5 -9.046875 C 16.226562 -8.296875 17.253906 -7.921875 18.578125 -7.921875 L 20.78125 -7.921875 L 20.78125 0 L 15.84375 0 C 12.53125 0 9.972656 -0.925781 8.171875 -2.78125 C 6.367188 -4.632812 5.46875 -7.207031 5.46875 -10.5 L 5.46875 -19.96875 L 0.90625 -19.96875 L 0.90625 -27.84375 L 5.46875 -27.84375 L 5.46875 -35.234375 L 14.40625 -35.234375 L 14.40625 -27.84375 L 20.78125 -27.84375 Z M 20.78125 -19.96875 "/></g></g></g><g fill="#000000" fill-opacity="1"><g transform="translate(307.174908, 205.874986)"><g><path d="M 16.5 -28.546875 C 19.132812 -28.546875 21.582031 -27.9375 23.84375 -26.71875 C 26.113281 -25.507812 27.9375 -23.804688 29.3125 -21.609375 C 30.6875 -19.410156 31.375 -16.921875 31.375 -14.140625 C 31.375 -13.316406 31.285156 -12.367188 31.109375 -11.296875 L 10.4375 -11.296875 C 10.800781 -9.617188 11.515625 -8.316406 12.578125 -7.390625 C 13.648438 -6.460938 14.988281 -6 16.59375 -6 C 17.882812 -6 18.96875 -6.226562 19.84375 -6.6875 C 20.71875 -7.15625 21.457031 -7.851562 22.0625 -8.78125 L 30.578125 -8.78125 C 29.535156 -5.957031 27.800781 -3.671875 25.375 -1.921875 C 22.945312 -0.171875 19.988281 0.703125 16.5 0.703125 C 13.8125 0.703125 11.328125 0.0976562 9.046875 -1.109375 C 6.765625 -2.328125 4.9375 -4.039062 3.5625 -6.25 C 2.1875 -8.46875 1.5 -11.023438 1.5 -13.921875 C 1.5 -16.816406 2.1875 -19.367188 3.5625 -21.578125 C 4.9375 -23.796875 6.765625 -25.507812 9.046875 -26.71875 C 11.328125 -27.9375 13.8125 -28.546875 16.5 -28.546875 Z M 16.5 -21.796875 C 15 -21.796875 13.71875 -21.375 12.65625 -20.53125 C 11.601562 -19.695312 10.882812 -18.476562 10.5 -16.875 L 22.59375 -16.875 C 22.3125 -18.332031 21.648438 -19.515625 20.609375 -20.421875 C 19.578125 -21.335938 18.207031 -21.796875 16.5 -21.796875 Z M 16.5 -21.796875 "/></g></g></g><g fill="#000000" fill-opacity="1"><g transform="translate(337.95489, 205.874986)"><g><path d="M 16.015625 -12.15625 L 22.8125 -27.84375 L 31.90625 -27.84375 L 14.71875 10.703125 L 5.78125 10.703125 L 11.625 -2.515625 L -0.265625 -27.84375 L 9.046875 -27.84375 Z M 16.015625 -12.15625 "/></g></g></g></svg>