<svg xmlns="http://www.w3.org/2000/svg" xmlns:xlink="http://www.w3.org/1999/xlink" width="500" zoomAndPan="magnify" viewBox="0 0 375 374.999991" height="500" preserveAspectRatio="xMidYMid meet" version="1.0"><defs><g/></defs><g fill="#fcfbfa" fill-opacity="1"><g transform="translate(40.242529, 209.099986)"><g><path d="M 28.34375 0 L 22.546875 0 L 17.984375 -14.625 L 13.234375 0 L 7.671875 0 L 0.25 -23.3125 L 6.71875 -23.3125 L 11.0625 -7.765625 L 15.71875 -23.3125 L 21.03125 -23.3125 L 25.6875 -7.671875 L 30.140625 -23.3125 L 35.90625 -23.3125 Z M 28.34375 0 "/></g></g></g><g fill="#fcfbfa" fill-opacity="1"><g transform="translate(76.179413, 209.099986)"><g><path d="M 12.953125 0 L 12.953125 -11.03125 C 12.953125 -11.84375 12.753906 -12.472656 12.359375 -12.921875 C 11.960938 -13.378906 11.390625 -13.609375 10.640625 -13.609375 C 10.148438 -13.609375 9.707031 -13.492188 9.3125 -13.265625 C 8.914062 -13.035156 8.566406 -12.738281 8.265625 -12.375 C 7.960938 -12.007812 7.726562 -11.59375 7.5625 -11.125 C 7.394531 -10.664062 7.3125 -10.210938 7.3125 -9.765625 L 7.3125 0 L 2.140625 0 L 2.140625 -23.3125 L 7.3125 -23.3125 L 7.3125 -13.796875 C 7.945312 -14.890625 8.738281 -15.722656 9.6875 -16.296875 C 10.644531 -16.867188 11.769531 -17.15625 13.0625 -17.15625 C 14.664062 -17.15625 15.914062 -16.644531 16.8125 -15.625 C 17.71875 -14.613281 18.171875 -13.289062 18.171875 -11.65625 L 18.171875 0 Z M 12.953125 0 "/></g></g></g><g fill="#fcfbfa" fill-opacity="1"><g transform="translate(96.299865, 209.099986)"><g><path d="M 16.96875 0.28125 C 15.738281 0.28125 14.765625 0.046875 14.046875 -0.421875 C 13.335938 -0.890625 12.878906 -1.671875 12.671875 -2.765625 C 11.992188 -1.710938 11.132812 -0.941406 10.09375 -0.453125 C 9.0625 0.0351562 7.914062 0.28125 6.65625 0.28125 C 5.832031 0.28125 5.078125 0.171875 4.390625 -0.046875 C 3.703125 -0.273438 3.109375 -0.59375 2.609375 -1 C 2.109375 -1.40625 1.71875 -1.898438 1.4375 -2.484375 C 1.15625 -3.066406 1.015625 -3.734375 1.015625 -4.484375 L 1.015625 -4.625 C 1.015625 -5.550781 1.28125 -6.351562 1.8125 -7.03125 C 2.351562 -7.707031 3.101562 -8.25 4.0625 -8.65625 C 5.019531 -9.070312 6.144531 -9.347656 7.4375 -9.484375 C 8.726562 -9.617188 10.144531 -9.617188 11.6875 -9.484375 L 11.6875 -10.953125 C 11.6875 -11.773438 11.460938 -12.414062 11.015625 -12.875 C 10.578125 -13.34375 9.914062 -13.578125 9.03125 -13.578125 C 8.21875 -13.578125 7.539062 -13.363281 7 -12.9375 C 6.457031 -12.519531 5.96875 -11.953125 5.53125 -11.234375 L 2.03125 -12.703125 C 2.65625 -14.054688 3.550781 -15.132812 4.71875 -15.9375 C 5.882812 -16.75 7.40625 -17.15625 9.28125 -17.15625 C 10.507812 -17.15625 11.59375 -16.988281 12.53125 -16.65625 C 13.46875 -16.332031 14.25 -15.878906 14.875 -15.296875 C 15.5 -14.710938 15.96875 -14.015625 16.28125 -13.203125 C 16.601562 -12.398438 16.765625 -11.535156 16.765625 -10.609375 L 16.765625 -4.09375 C 16.765625 -3.695312 16.863281 -3.410156 17.0625 -3.234375 C 17.257812 -3.054688 17.648438 -2.96875 18.234375 -2.96875 L 18.234375 0.28125 Z M 11.6875 -7.25 C 9.820312 -7.5 8.40625 -7.421875 7.4375 -7.015625 C 6.46875 -6.609375 5.984375 -5.972656 5.984375 -5.109375 L 5.984375 -4.765625 C 5.984375 -4.242188 6.1875 -3.804688 6.59375 -3.453125 C 7 -3.109375 7.566406 -2.9375 8.296875 -2.9375 C 8.734375 -2.9375 9.15625 -3 9.5625 -3.125 C 9.976562 -3.257812 10.34375 -3.4375 10.65625 -3.65625 C 10.96875 -3.875 11.21875 -4.140625 11.40625 -4.453125 C 11.59375 -4.773438 11.6875 -5.132812 11.6875 -5.53125 Z M 11.6875 -7.25 "/></g></g></g><g fill="#fcfbfa" fill-opacity="1"><g transform="translate(115.405546, 209.099986)"><g><path d="M 8.859375 -13.15625 L 8.859375 -5.078125 C 8.859375 -4.066406 8.984375 -3.140625 9.234375 -2.296875 C 9.492188 -1.460938 9.925781 -0.695312 10.53125 0 L 4.90625 0 C 4.4375 -0.625 4.109375 -1.332031 3.921875 -2.125 C 3.734375 -2.925781 3.640625 -3.910156 3.640625 -5.078125 L 3.640625 -13.15625 L 0.765625 -13.15625 L 0.765625 -16.796875 L 3.78125 -16.796875 L 3.78125 -19.921875 L 8.859375 -21.140625 L 8.859375 -16.796875 L 12.359375 -16.796875 L 12.359375 -13.15625 Z M 8.859375 -13.15625 "/></g></g></g><g fill="#fcfbfa" fill-opacity="1"><g transform="translate(128.387608, 209.099986)"><g><path d="M 12.875 -11.515625 C 12.5 -12.171875 11.957031 -12.710938 11.25 -13.140625 C 10.539062 -13.578125 9.742188 -13.796875 8.859375 -13.796875 C 8.015625 -13.796875 7.359375 -13.640625 6.890625 -13.328125 C 6.421875 -13.023438 6.1875 -12.664062 6.1875 -12.25 C 6.1875 -11.78125 6.4375 -11.414062 6.9375 -11.15625 C 7.445312 -10.90625 8.070312 -10.679688 8.8125 -10.484375 C 9.5625 -10.285156 10.378906 -10.070312 11.265625 -9.84375 C 12.148438 -9.625 12.96875 -9.320312 13.71875 -8.9375 C 14.46875 -8.550781 15.09375 -8.050781 15.59375 -7.4375 C 16.09375 -6.820312 16.34375 -6.023438 16.34375 -5.046875 C 16.34375 -4.410156 16.191406 -3.773438 15.890625 -3.140625 C 15.585938 -2.515625 15.117188 -1.953125 14.484375 -1.453125 C 13.859375 -0.953125 13.0625 -0.535156 12.09375 -0.203125 C 11.125 0.117188 9.972656 0.28125 8.640625 0.28125 C 7.617188 0.28125 6.691406 0.171875 5.859375 -0.046875 C 5.035156 -0.273438 4.289062 -0.570312 3.625 -0.9375 C 2.957031 -1.3125 2.378906 -1.753906 1.890625 -2.265625 C 1.398438 -2.785156 0.992188 -3.335938 0.671875 -3.921875 L 3.984375 -5.734375 C 4.523438 -4.898438 5.195312 -4.25 6 -3.78125 C 6.800781 -3.3125 7.695312 -3.078125 8.6875 -3.078125 C 9.707031 -3.078125 10.441406 -3.222656 10.890625 -3.515625 C 11.347656 -3.804688 11.578125 -4.207031 11.578125 -4.71875 C 11.578125 -5.1875 11.328125 -5.554688 10.828125 -5.828125 C 10.328125 -6.097656 9.703125 -6.332031 8.953125 -6.53125 C 8.210938 -6.726562 7.40625 -6.9375 6.53125 -7.15625 C 5.65625 -7.375 4.84375 -7.664062 4.09375 -8.03125 C 3.34375 -8.394531 2.71875 -8.875 2.21875 -9.46875 C 1.71875 -10.0625 1.46875 -10.847656 1.46875 -11.828125 C 1.46875 -12.523438 1.628906 -13.195312 1.953125 -13.84375 C 2.285156 -14.488281 2.769531 -15.054688 3.40625 -15.546875 C 4.050781 -16.035156 4.832031 -16.425781 5.75 -16.71875 C 6.675781 -17.007812 7.734375 -17.15625 8.921875 -17.15625 C 10.816406 -17.15625 12.367188 -16.769531 13.578125 -16 C 14.796875 -15.226562 15.707031 -14.1875 16.3125 -12.875 Z M 12.875 -11.515625 "/></g></g></g><g fill="#fcfbfa" fill-opacity="1"><g transform="translate(145.778678, 209.099986)"><g><path d="M 17.5 0 L 15.859375 -4.765625 L 7.625 -4.765625 L 5.953125 0 L 0.171875 0 L 8.921875 -23.3125 L 15.15625 -23.3125 L 24.015625 0 Z M 11.828125 -16.875 L 9 -8.75 L 14.5625 -8.75 Z M 11.828125 -16.875 "/></g></g></g><g fill="#fcfbfa" fill-opacity="1"><g transform="translate(170.028204, 209.099986)"><g><path d="M 18.40625 -6.265625 C 18.40625 -5.359375 18.242188 -4.503906 17.921875 -3.703125 C 17.597656 -2.910156 17.15625 -2.21875 16.59375 -1.625 C 16.03125 -1.03125 15.367188 -0.5625 14.609375 -0.21875 C 13.847656 0.113281 13.039062 0.28125 12.1875 0.28125 C 11.082031 0.28125 10.140625 0.113281 9.359375 -0.21875 C 8.578125 -0.5625 7.882812 -1.082031 7.28125 -1.78125 L 7.28125 5.734375 L 2.140625 5.734375 L 2.140625 -16.796875 L 5.984375 -16.796875 L 6.375 -14.203125 C 6.90625 -15.117188 7.660156 -15.835938 8.640625 -16.359375 C 9.617188 -16.890625 10.671875 -17.15625 11.796875 -17.15625 C 12.816406 -17.15625 13.734375 -16.976562 14.546875 -16.625 C 15.367188 -16.269531 16.066406 -15.773438 16.640625 -15.140625 C 17.210938 -14.515625 17.648438 -13.78125 17.953125 -12.9375 C 18.253906 -12.101562 18.40625 -11.195312 18.40625 -10.21875 Z M 13.296875 -10.296875 C 13.296875 -11.335938 13.023438 -12.15625 12.484375 -12.75 C 11.953125 -13.351562 11.234375 -13.65625 10.328125 -13.65625 C 9.460938 -13.65625 8.742188 -13.347656 8.171875 -12.734375 C 7.597656 -12.128906 7.3125 -11.300781 7.3125 -10.25 L 7.3125 -6.546875 C 7.3125 -5.492188 7.609375 -4.675781 8.203125 -4.09375 C 8.796875 -3.507812 9.503906 -3.21875 10.328125 -3.21875 C 11.234375 -3.21875 11.953125 -3.515625 12.484375 -4.109375 C 13.023438 -4.703125 13.296875 -5.535156 13.296875 -6.609375 Z M 13.296875 -10.296875 "/></g></g></g><g fill="#fcfbfa" fill-opacity="1"><g transform="translate(189.868721, 209.099986)"><g><path d="M 18.40625 -6.265625 C 18.40625 -5.359375 18.242188 -4.503906 17.921875 -3.703125 C 17.597656 -2.910156 17.15625 -2.21875 16.59375 -1.625 C 16.03125 -1.03125 15.367188 -0.5625 14.609375 -0.21875 C 13.847656 0.113281 13.039062 0.28125 12.1875 0.28125 C 11.082031 0.28125 10.140625 0.113281 9.359375 -0.21875 C 8.578125 -0.5625 7.882812 -1.082031 7.28125 -1.78125 L 7.28125 5.734375 L 2.140625 5.734375 L 2.140625 -16.796875 L 5.984375 -16.796875 L 6.375 -14.203125 C 6.90625 -15.117188 7.660156 -15.835938 8.640625 -16.359375 C 9.617188 -16.890625 10.671875 -17.15625 11.796875 -17.15625 C 12.816406 -17.15625 13.734375 -16.976562 14.546875 -16.625 C 15.367188 -16.269531 16.066406 -15.773438 16.640625 -15.140625 C 17.210938 -14.515625 17.648438 -13.78125 17.953125 -12.9375 C 18.253906 -12.101562 18.40625 -11.195312 18.40625 -10.21875 Z M 13.296875 -10.296875 C 13.296875 -11.335938 13.023438 -12.15625 12.484375 -12.75 C 11.953125 -13.351562 11.234375 -13.65625 10.328125 -13.65625 C 9.460938 -13.65625 8.742188 -13.347656 8.171875 -12.734375 C 7.597656 -12.128906 7.3125 -11.300781 7.3125 -10.25 L 7.3125 -6.546875 C 7.3125 -5.492188 7.609375 -4.675781 8.203125 -4.09375 C 8.796875 -3.507812 9.503906 -3.21875 10.328125 -3.21875 C 11.234375 -3.21875 11.953125 -3.515625 12.484375 -4.109375 C 13.023438 -4.703125 13.296875 -5.535156 13.296875 -6.609375 Z M 13.296875 -10.296875 "/></g></g></g><g fill="#fcfbfa" fill-opacity="1"><g transform="translate(209.709239, 209.099986)"><g/></g></g><g fill="#fcfbfa" fill-opacity="1"><g transform="translate(218.282305, 209.099986)"><g><path d="M 20.75 0 L 19.921875 -3.078125 C 19.117188 -1.929688 18.054688 -1.023438 16.734375 -0.359375 C 15.421875 0.296875 13.925781 0.625 12.25 0.625 C 10.519531 0.625 8.988281 0.367188 7.65625 -0.140625 C 6.332031 -0.648438 5.210938 -1.347656 4.296875 -2.234375 C 3.390625 -3.117188 2.703125 -4.15625 2.234375 -5.34375 C 1.773438 -6.539062 1.546875 -7.804688 1.546875 -9.140625 L 1.546875 -14.0625 C 1.546875 -15.394531 1.816406 -16.660156 2.359375 -17.859375 C 2.910156 -19.066406 3.691406 -20.117188 4.703125 -21.015625 C 5.722656 -21.910156 6.941406 -22.617188 8.359375 -23.140625 C 9.785156 -23.671875 11.375 -23.9375 13.125 -23.9375 C 15.738281 -23.9375 17.90625 -23.375 19.625 -22.25 C 21.351562 -21.132812 22.640625 -19.703125 23.484375 -17.953125 L 19.046875 -15.640625 C 18.503906 -16.617188 17.765625 -17.441406 16.828125 -18.109375 C 15.898438 -18.773438 14.769531 -19.109375 13.4375 -19.109375 C 12.550781 -19.109375 11.765625 -18.976562 11.078125 -18.71875 C 10.390625 -18.46875 9.804688 -18.125 9.328125 -17.6875 C 8.847656 -17.257812 8.484375 -16.738281 8.234375 -16.125 C 7.992188 -15.519531 7.875 -14.867188 7.875 -14.171875 L 7.875 -9.0625 C 7.875 -8.382812 7.984375 -7.75 8.203125 -7.15625 C 8.429688 -6.5625 8.765625 -6.039062 9.203125 -5.59375 C 9.648438 -5.15625 10.191406 -4.8125 10.828125 -4.5625 C 11.472656 -4.320312 12.203125 -4.203125 13.015625 -4.203125 C 14.421875 -4.203125 15.515625 -4.570312 16.296875 -5.3125 C 17.078125 -6.0625 17.46875 -7 17.46875 -8.125 L 17.46875 -8.71875 L 13.375 -8.71875 L 13.375 -12 L 23.59375 -12 L 23.59375 0 Z M 20.75 0 "/></g></g></g><g fill="#fcfbfa" fill-opacity="1"><g transform="translate(243.511605, 209.099986)"><g><path d="M 13.296875 -12.140625 C 12.242188 -12.347656 11.34375 -12.425781 10.59375 -12.375 C 9.851562 -12.332031 9.238281 -12.179688 8.75 -11.921875 C 8.257812 -11.671875 7.898438 -11.347656 7.671875 -10.953125 C 7.453125 -10.554688 7.34375 -10.113281 7.34375 -9.625 L 7.34375 0 L 2.140625 0 L 2.140625 -16.796875 L 6.609375 -16.796875 L 6.859375 -13.015625 C 7.398438 -14.703125 8.207031 -15.847656 9.28125 -16.453125 C 10.351562 -17.054688 11.75 -17.179688 13.46875 -16.828125 Z M 13.296875 -12.140625 "/></g></g></g><g fill="#fcfbfa" fill-opacity="1"><g transform="translate(257.718391, 209.099986)"><g><path d="M 18.0625 -7.0625 C 18.0625 -5.894531 17.847656 -4.859375 17.421875 -3.953125 C 17.003906 -3.046875 16.425781 -2.273438 15.6875 -1.640625 C 14.957031 -1.015625 14.082031 -0.535156 13.0625 -0.203125 C 12.050781 0.117188 10.953125 0.28125 9.765625 0.28125 C 8.546875 0.28125 7.429688 0.117188 6.421875 -0.203125 C 5.410156 -0.535156 4.535156 -1.015625 3.796875 -1.640625 C 3.054688 -2.273438 2.476562 -3.046875 2.0625 -3.953125 C 1.644531 -4.859375 1.4375 -5.894531 1.4375 -7.0625 L 1.4375 -9.734375 C 1.4375 -10.898438 1.644531 -11.941406 2.0625 -12.859375 C 2.476562 -13.785156 3.054688 -14.5625 3.796875 -15.1875 C 4.535156 -15.820312 5.410156 -16.304688 6.421875 -16.640625 C 7.429688 -16.984375 8.546875 -17.15625 9.765625 -17.15625 C 10.953125 -17.15625 12.050781 -16.984375 13.0625 -16.640625 C 14.082031 -16.304688 14.957031 -15.820312 15.6875 -15.1875 C 16.425781 -14.5625 17.003906 -13.785156 17.421875 -12.859375 C 17.847656 -11.941406 18.0625 -10.898438 18.0625 -9.734375 Z M 12.953125 -10.1875 C 12.953125 -11.257812 12.675781 -12.097656 12.125 -12.703125 C 11.582031 -13.304688 10.796875 -13.609375 9.765625 -13.609375 C 8.734375 -13.609375 7.9375 -13.304688 7.375 -12.703125 C 6.820312 -12.097656 6.546875 -11.257812 6.546875 -10.1875 L 6.546875 -6.65625 C 6.546875 -5.582031 6.820312 -4.738281 7.375 -4.125 C 7.9375 -3.519531 8.734375 -3.21875 9.765625 -3.21875 C 10.796875 -3.21875 11.582031 -3.519531 12.125 -4.125 C 12.675781 -4.738281 12.953125 -5.582031 12.953125 -6.65625 Z M 12.953125 -10.1875 "/></g></g></g><g fill="#fcfbfa" fill-opacity="1"><g transform="translate(277.209006, 209.099986)"><g><path d="M 13.828125 0 L 13.609375 -3.640625 C 12.890625 -2.304688 12.039062 -1.316406 11.0625 -0.671875 C 10.082031 -0.0351562 8.90625 0.28125 7.53125 0.28125 C 5.726562 0.28125 4.367188 -0.210938 3.453125 -1.203125 C 2.546875 -2.191406 2.09375 -3.519531 2.09375 -5.1875 L 2.09375 -16.796875 L 7.3125 -16.796875 L 7.3125 -5.8125 C 7.3125 -4.988281 7.523438 -4.351562 7.953125 -3.90625 C 8.390625 -3.46875 8.992188 -3.25 9.765625 -3.25 C 10.234375 -3.25 10.671875 -3.359375 11.078125 -3.578125 C 11.484375 -3.804688 11.832031 -4.09375 12.125 -4.4375 C 12.414062 -4.789062 12.648438 -5.1875 12.828125 -5.625 C 13.003906 -6.070312 13.09375 -6.53125 13.09375 -7 L 13.09375 -16.796875 L 18.265625 -16.796875 L 18.265625 0 Z M 13.828125 0 "/></g></g></g><g fill="#fcfbfa" fill-opacity="1"><g transform="translate(297.504415, 209.099986)"><g><path d="M 18.40625 -6.265625 C 18.40625 -5.359375 18.242188 -4.503906 17.921875 -3.703125 C 17.597656 -2.910156 17.15625 -2.21875 16.59375 -1.625 C 16.03125 -1.03125 15.367188 -0.5625 14.609375 -0.21875 C 13.847656 0.113281 13.039062 0.28125 12.1875 0.28125 C 11.082031 0.28125 10.140625 0.113281 9.359375 -0.21875 C 8.578125 -0.5625 7.882812 -1.082031 7.28125 -1.78125 L 7.28125 5.734375 L 2.140625 5.734375 L 2.140625 -16.796875 L 5.984375 -16.796875 L 6.375 -14.203125 C 6.90625 -15.117188 7.660156 -15.835938 8.640625 -16.359375 C 9.617188 -16.890625 10.671875 -17.15625 11.796875 -17.15625 C 12.816406 -17.15625 13.734375 -16.976562 14.546875 -16.625 C 15.367188 -16.269531 16.066406 -15.773438 16.640625 -15.140625 C 17.210938 -14.515625 17.648438 -13.78125 17.953125 -12.9375 C 18.253906 -12.101562 18.40625 -11.195312 18.40625 -10.21875 Z M 13.296875 -10.296875 C 13.296875 -11.335938 13.023438 -12.15625 12.484375 -12.75 C 11.953125 -13.351562 11.234375 -13.65625 10.328125 -13.65625 C 9.460938 -13.65625 8.742188 -13.347656 8.171875 -12.734375 C 7.597656 -12.128906 7.3125 -11.300781 7.3125 -10.25 L 7.3125 -6.546875 C 7.3125 -5.492188 7.609375 -4.675781 8.203125 -4.09375 C 8.796875 -3.507812 9.503906 -3.21875 10.328125 -3.21875 C 11.234375 -3.21875 11.953125 -3.515625 12.484375 -4.109375 C 13.023438 -4.703125 13.296875 -5.535156 13.296875 -6.609375 Z M 13.296875 -10.296875 "/></g></g></g><g fill="#fcfbfa" fill-opacity="1"><g transform="translate(317.344945, 209.099986)"><g><path d="M 12.875 -11.515625 C 12.5 -12.171875 11.957031 -12.710938 11.25 -13.140625 C 10.539062 -13.578125 9.742188 -13.796875 8.859375 -13.796875 C 8.015625 -13.796875 7.359375 -13.640625 6.890625 -13.328125 C 6.421875 -13.023438 6.1875 -12.664062 6.1875 -12.25 C 6.1875 -11.78125 6.4375 -11.414062 6.9375 -11.15625 C 7.445312 -10.90625 8.070312 -10.679688 8.8125 -10.484375 C 9.5625 -10.285156 10.378906 -10.070312 11.265625 -9.84375 C 12.148438 -9.625 12.96875 -9.320312 13.71875 -8.9375 C 14.46875 -8.550781 15.09375 -8.050781 15.59375 -7.4375 C 16.09375 -6.820312 16.34375 -6.023438 16.34375 -5.046875 C 16.34375 -4.410156 16.191406 -3.773438 15.890625 -3.140625 C 15.585938 -2.515625 15.117188 -1.953125 14.484375 -1.453125 C 13.859375 -0.953125 13.0625 -0.535156 12.09375 -0.203125 C 11.125 0.117188 9.972656 0.28125 8.640625 0.28125 C 7.617188 0.28125 6.691406 0.171875 5.859375 -0.046875 C 5.035156 -0.273438 4.289062 -0.570312 3.625 -0.9375 C 2.957031 -1.3125 2.378906 -1.753906 1.890625 -2.265625 C 1.398438 -2.785156 0.992188 -3.335938 0.671875 -3.921875 L 3.984375 -5.734375 C 4.523438 -4.898438 5.195312 -4.25 6 -3.78125 C 6.800781 -3.3125 7.695312 -3.078125 8.6875 -3.078125 C 9.707031 -3.078125 10.441406 -3.222656 10.890625 -3.515625 C 11.347656 -3.804688 11.578125 -4.207031 11.578125 -4.71875 C 11.578125 -5.1875 11.328125 -5.554688 10.828125 -5.828125 C 10.328125 -6.097656 9.703125 -6.332031 8.953125 -6.53125 C 8.210938 -6.726562 7.40625 -6.9375 6.53125 -7.15625 C 5.65625 -7.375 4.84375 -7.664062 4.09375 -8.03125 C 3.34375 -8.394531 2.71875 -8.875 2.21875 -9.46875 C 1.71875 -10.0625 1.46875 -10.847656 1.46875 -11.828125 C 1.46875 -12.523438 1.628906 -13.195312 1.953125 -13.84375 C 2.285156 -14.488281 2.769531 -15.054688 3.40625 -15.546875 C 4.050781 -16.035156 4.832031 -16.425781 5.75 -16.71875 C 6.675781 -17.007812 7.734375 -17.15625 8.921875 -17.15625 C 10.816406 -17.15625 12.367188 -16.769531 13.578125 -16 C 14.796875 -15.226562 15.707031 -14.1875 16.3125 -12.875 Z M 12.875 -11.515625 "/></g></g></g></svg>