<svg xmlns="http://www.w3.org/2000/svg" xmlns:xlink="http://www.w3.org/1999/xlink" width="500" zoomAndPan="magnify" viewBox="0 0 375 374.999991" height="500" preserveAspectRatio="xMidYMid meet" version="1.0"><defs><g/></defs><g fill="#fcfbfa" fill-opacity="1"><g transform="translate(11.098, 209.099986)"><g><path d="M 2.554688 -1.015625 L 2.90625 -0.351562 L 3.675781 0 L 6.125 0.105469 L 7.875 -0.0351562 L 8.609375 -0.351562 L 9.027344 -1.398438 L 8.921875 -2.519531 L 8.992188 -3.183594 L 8.957031 -6.894531 L 9.273438 -7.59375 L 9.972656 -7.910156 L 10.742188 -7.980469 L 11.476562 -7.839844 L 12.179688 -7.980469 L 12.878906 -7.910156 L 13.613281 -7.945312 L 14.3125 -7.875 L 15.746094 -7.945312 L 16.484375 -8.292969 L 16.832031 -9.378906 L 16.796875 -12.492188 L 16.449219 -13.191406 L 15.710938 -13.472656 L 13.996094 -13.542969 L 12.144531 -13.402344 L 10.777344 -13.578125 L 10.007812 -13.542969 L 9.308594 -13.824219 L 8.921875 -14.558594 L 8.921875 -15.539062 L 8.992188 -16.203125 L 8.921875 -17.777344 L 9.273438 -18.476562 L 9.9375 -18.933594 L 11.058594 -18.933594 L 12.074219 -18.863281 L 12.703125 -18.898438 L 13.402344 -18.863281 L 14.136719 -18.933594 L 16.796875 -18.863281 L 17.496094 -19.210938 L 17.847656 -19.914062 L 17.777344 -21.695312 L 17.847656 -23.027344 L 17.425781 -24.078125 L 16.832031 -24.460938 L 14.734375 -24.425781 L 13.964844 -24.53125 L 12.597656 -24.460938 L 11.96875 -24.53125 L 10.917969 -24.460938 L 10.21875 -24.496094 L 9.132812 -24.425781 L 7.769531 -24.425781 L 7.140625 -24.496094 L 5.355469 -24.496094 L 4.621094 -24.425781 L 3.640625 -24.460938 L 2.871094 -24.078125 L 2.660156 -23.445312 L 2.554688 -22.011719 L 2.660156 -20.960938 L 2.519531 -17.042969 L 2.589844 -16.449219 L 2.625 -15.710938 L 2.554688 -15.082031 L 2.625 -14.277344 L 2.554688 -13.648438 L 2.519531 -12.984375 L 2.589844 -12.316406 L 2.519531 -11.511719 Z M 2.554688 -1.015625 "/></g></g></g><g fill="#fcfbfa" fill-opacity="1"><g transform="translate(30.168696, 209.099986)"><g><path d="M 0.453125 -0.945312 L 0.628906 -0.210938 L 1.328125 -0.0351562 L 4.410156 -0.0351562 L 5.320312 0.0703125 L 6.125 -0.28125 L 6.753906 -0.910156 L 7.347656 -2.101562 L 7.945312 -2.765625 L 8.785156 -3.113281 L 9.484375 -3.042969 L 11.445312 -3.078125 L 12.179688 -2.972656 L 12.984375 -3.078125 L 13.613281 -3.078125 L 14.347656 -3.007812 L 15.992188 -3.078125 L 17.148438 -2.695312 L 17.882812 -2.132812 L 18.058594 -1.503906 L 18.441406 -0.875 L 19.039062 -0.316406 L 19.945312 0.0351562 L 20.578125 -0.0351562 L 21.800781 0.0703125 L 23.972656 0 L 24.601562 -0.210938 L 24.742188 -0.945312 L 24.53125 -1.820312 L 24.285156 -2.449219 L 23.832031 -3.042969 L 23.621094 -3.746094 L 23.273438 -4.269531 L 23.0625 -4.933594 L 22.464844 -6.195312 L 22.222656 -6.859375 L 21.871094 -7.453125 L 21.382812 -8.75 L 20.996094 -9.308594 L 20.71875 -10.007812 L 20.402344 -10.601562 L 20.15625 -11.304688 L 19.84375 -11.828125 L 19.632812 -12.527344 L 19.246094 -13.15625 L 18.96875 -13.753906 L 18.617188 -14.347656 L 18.441406 -15.011719 L 17.742188 -16.238281 L 17.53125 -16.902344 L 16.902344 -18.230469 L 16.726562 -18.792969 L 16.203125 -20.015625 L 15.503906 -21.3125 L 14.941406 -22.640625 L 14.628906 -23.167969 L 14.417969 -23.832031 L 13.789062 -24.496094 L 12.597656 -24.8125 L 11.476562 -24.460938 L 10.8125 -23.832031 L 10.601562 -23.203125 L 9.097656 -20.050781 L 8.714844 -19.421875 L 6.753906 -15.011719 L 6.578125 -14.417969 L 6.195312 -13.789062 L 5.632812 -12.527344 L 5.109375 -11.617188 L 4.863281 -10.953125 L 4.375 -10.042969 L 4.164062 -9.308594 L 3.847656 -8.75 L 3.605469 -8.050781 L 2.625 -6.230469 L 1.609375 -3.675781 L 1.191406 -3.113281 L 0.875 -2.414062 Z M 11.269531 -8.644531 L 10.601562 -8.921875 L 10.5 -9.625 L 11.898438 -12.808594 L 12.214844 -13.367188 L 12.667969 -13.71875 L 13.089844 -13.4375 L 13.542969 -12.074219 L 13.929688 -11.476562 L 14.066406 -10.917969 L 14.417969 -10.21875 L 14.664062 -9.589844 L 14.59375 -8.957031 L 13.996094 -8.679688 Z M 11.269531 -8.644531 "/></g></g></g><g fill="#fcfbfa" fill-opacity="1"><g transform="translate(55.572953, 209.099986)"><g><path d="M 12.878906 0.351562 L 14.976562 0.453125 L 18.371094 -0.246094 L 20.296875 -1.085938 L 20.820312 -1.433594 L 21.453125 -1.820312 L 22.046875 -2.238281 L 22.5 -2.695312 L 22.886719 -3.289062 L 23.480469 -3.746094 L 24.53125 -5.5625 L 24.847656 -6.195312 L 25.019531 -6.859375 L 25.265625 -7.558594 L 25.371094 -8.222656 L 25.160156 -8.855469 L 24.285156 -9.238281 L 20.542969 -9.273438 L 19.773438 -8.921875 L 19.074219 -8.257812 L 18.792969 -7.664062 L 17.460938 -6.230469 L 16.273438 -5.632812 L 15.574219 -5.425781 L 14.835938 -5.355469 L 12.878906 -5.390625 L 10.988281 -6.089844 L 10.324219 -6.402344 L 9.867188 -6.894531 L 8.574219 -8.574219 L 8.292969 -9.167969 L 7.875 -10.535156 L 7.769531 -12.179688 L 7.804688 -13.296875 L 8.050781 -13.929688 L 8.082031 -14.628906 L 8.292969 -15.257812 L 8.890625 -16.519531 L 9.761719 -17.601562 L 10.917969 -18.441406 L 11.582031 -18.722656 L 12.808594 -19.074219 L 14.976562 -19.003906 L 16.308594 -18.757812 L 17.042969 -18.511719 L 18.058594 -17.671875 L 18.582031 -17.113281 L 18.898438 -16.519531 L 19.527344 -15.851562 L 20.296875 -15.539062 L 23.832031 -15.46875 L 24.53125 -15.539062 L 25.089844 -15.851562 L 25.300781 -16.585938 L 25.019531 -17.289062 L 24.917969 -17.917969 L 24.355469 -19.246094 L 23.0625 -21.03125 L 21.242188 -22.675781 L 20.472656 -23.203125 L 18.476562 -24.113281 L 17.113281 -24.496094 L 15.363281 -24.742188 L 12.179688 -24.742188 L 11.582031 -24.671875 L 10.917969 -24.460938 L 9.554688 -24.179688 L 8.890625 -23.9375 L 8.363281 -23.621094 L 7.734375 -23.375 L 5.285156 -21.800781 L 4.863281 -21.242188 L 3.917969 -20.367188 L 3.5 -19.773438 L 1.890625 -16.621094 L 1.261719 -12.25 L 1.398438 -11.128906 L 1.398438 -9.730469 L 1.75 -8.363281 L 2.03125 -7.699219 L 2.132812 -7.070312 L 2.484375 -6.4375 L 2.730469 -5.84375 L 4.128906 -3.816406 L 5.390625 -2.589844 L 5.984375 -2.203125 L 6.507812 -1.785156 L 8.890625 -0.488281 L 9.589844 -0.246094 L 10.113281 -0.105469 L 10.847656 0.140625 L 11.582031 0.210938 L 12.214844 0.351562 Z M 12.878906 0.351562 "/></g></g></g><g fill="#fcfbfa" fill-opacity="1"><g transform="translate(82.271926, 209.099986)"><g><path d="M 2.519531 -1.015625 L 2.972656 -0.351562 L 3.640625 0.0351562 L 11.546875 -0.0351562 L 12.179688 0.0703125 L 14.3125 -0.0351562 L 16.449219 0.105469 L 17.113281 0.0351562 L 17.847656 -0.316406 L 18.164062 -0.980469 L 18.230469 -1.644531 L 18.199219 -3.816406 L 18.265625 -4.480469 L 17.8125 -5.179688 L 16.761719 -5.527344 L 12.144531 -5.597656 L 11.476562 -5.496094 L 10.707031 -5.5625 L 9.9375 -5.496094 L 9.203125 -5.914062 L 8.890625 -7 L 8.921875 -8.714844 L 9.238281 -9.449219 L 9.867188 -9.832031 L 11.234375 -9.832031 L 11.933594 -9.902344 L 13.789062 -9.796875 L 14.734375 -9.867188 L 15.46875 -9.796875 L 16.097656 -9.832031 L 16.796875 -10.21875 L 17.148438 -10.882812 L 17.21875 -13.648438 L 17.148438 -14.347656 L 16.832031 -15.011719 L 16.238281 -15.398438 L 14.835938 -15.433594 L 14.136719 -15.363281 L 13.402344 -15.363281 L 12.597656 -15.433594 L 9.832031 -15.398438 L 9.238281 -15.78125 L 8.820312 -16.414062 L 8.75 -17.496094 L 9.097656 -18.511719 L 10.183594 -18.828125 L 16.902344 -18.863281 L 17.636719 -19.246094 L 18.023438 -19.878906 L 17.953125 -21.3125 L 17.847656 -21.976562 L 17.882812 -22.746094 L 17.988281 -23.410156 L 17.636719 -24.113281 L 16.902344 -24.425781 L 14.101562 -24.460938 L 13.472656 -24.390625 L 12.773438 -24.496094 L 11.234375 -24.425781 L 10.535156 -24.496094 L 9.167969 -24.460938 L 8.539062 -24.53125 L 3.953125 -24.425781 L 2.941406 -24.179688 L 2.589844 -23.410156 L 2.660156 -22.011719 L 2.519531 -20.996094 L 2.660156 -19.210938 L 2.589844 -18.476562 L 2.660156 -17.847656 L 2.660156 -11.582031 L 2.554688 -10.847656 L 2.660156 -9.484375 L 2.589844 -8.082031 L 2.695312 -7.347656 L 2.625 -6.578125 L 2.660156 -5.914062 L 2.554688 -5.285156 L 2.625 -4.480469 L 2.625 -3.78125 L 2.695312 -2.414062 L 2.660156 -1.714844 Z M 2.519531 -1.015625 "/></g></g></g><g fill="#fcfbfa" fill-opacity="1"><g transform="translate(102.322397, 209.099986)"><g><path d="M 2.554688 -1.050781 L 2.941406 -0.246094 L 3.605469 0.0703125 L 15.1875 -0.0703125 L 16.519531 -0.246094 L 17.671875 -0.699219 L 19.003906 -1.46875 L 19.457031 -1.820312 L 20.015625 -2.34375 L 20.820312 -3.5 L 21.136719 -4.164062 L 21.277344 -4.757812 L 21.558594 -5.460938 L 21.59375 -8.257812 L 21.453125 -8.921875 L 21.207031 -9.660156 L 20.578125 -10.882812 L 20.085938 -11.476562 L 19.5625 -12.003906 L 19.246094 -12.773438 L 19.386719 -13.472656 L 19.773438 -14.171875 L 20.191406 -14.769531 L 20.683594 -17.289062 L 20.648438 -18.300781 L 20.261719 -19.597656 L 19.914062 -20.261719 L 19.703125 -20.925781 L 18.863281 -22.046875 L 18.371094 -22.535156 L 17.324219 -23.273438 L 16.027344 -23.972656 L 14.066406 -24.425781 L 3.535156 -24.496094 L 2.835938 -24.179688 L 2.519531 -23.445312 L 2.589844 -21.941406 L 2.519531 -20.925781 L 2.660156 -18.582031 L 2.554688 -17.847656 L 2.625 -17.113281 L 2.554688 -16.449219 L 2.589844 -15.710938 L 2.519531 -15.046875 L 2.519531 -12.25 L 2.625 -11.511719 L 2.554688 -10.847656 L 2.554688 -9.449219 L 2.625 -8.785156 L 2.554688 -5.914062 L 2.660156 -4.480469 L 2.519531 -2.378906 Z M 9.730469 -15.011719 L 8.890625 -15.292969 L 8.539062 -15.992188 L 8.679688 -16.585938 L 8.679688 -17.253906 L 8.609375 -17.917969 L 8.992188 -18.511719 L 9.730469 -18.898438 L 12.25 -18.792969 L 13.332031 -18.582031 L 13.753906 -18.300781 L 14.207031 -17.8125 L 14.3125 -16.867188 L 14.136719 -15.816406 L 13.542969 -15.257812 L 12.351562 -15.011719 Z M 9.625 -5.5625 L 9.027344 -5.84375 L 8.644531 -6.578125 L 8.679688 -7.175781 L 8.609375 -7.839844 L 8.644531 -8.539062 L 8.890625 -9.167969 L 9.589844 -9.519531 L 13.296875 -9.519531 L 14.277344 -9.34375 L 14.804688 -8.957031 L 15.328125 -8.46875 L 15.398438 -7.488281 L 15.328125 -6.578125 L 14.871094 -6.089844 L 14.242188 -5.703125 L 12.351562 -5.527344 Z M 9.625 -5.5625 "/></g></g></g><g fill="#fcfbfa" fill-opacity="1"><g transform="translate(125.417179, 209.099986)"><g><path d="M 13.089844 0.421875 L 15.046875 0.386719 L 17.148438 0.105469 L 19.773438 -0.769531 L 20.925781 -1.398438 L 21.453125 -1.820312 L 22.117188 -2.132812 L 23.097656 -2.972656 L 23.550781 -3.605469 L 24.042969 -4.09375 L 25.582031 -6.4375 L 26.105469 -7.769531 L 26.386719 -9.097656 L 26.421875 -9.730469 L 26.597656 -10.429688 L 26.632812 -11.164062 L 26.769531 -12.179688 L 26.667969 -13.929688 L 26.421875 -15.363281 L 25.546875 -17.988281 L 24.882812 -19.28125 L 24.113281 -20.332031 L 23.132812 -21.417969 L 22.117188 -22.292969 L 21.3125 -22.851562 L 20.261719 -23.308594 L 19.738281 -23.691406 L 17.042969 -24.53125 L 15.011719 -24.882812 L 14.066406 -24.917969 L 10.359375 -24.390625 L 7.734375 -23.410156 L 7.207031 -23.027344 L 6.578125 -22.710938 L 5.390625 -21.835938 L 3.675781 -19.84375 L 2.589844 -17.988281 L 2.066406 -16.65625 L 1.46875 -13.964844 L 1.363281 -11.128906 L 1.46875 -10.394531 L 1.644531 -9.761719 L 1.714844 -9.097656 L 2.03125 -7.769531 L 3.640625 -4.585938 L 4.058594 -4.164062 L 4.515625 -3.605469 L 5.039062 -3.113281 L 5.425781 -2.660156 L 6.578125 -1.75 L 9.308594 -0.351562 L 10.324219 0 L 11.09375 0.0703125 L 12.351562 0.351562 Z M 15.046875 -5.773438 L 13.125 -5.773438 L 12.351562 -5.878906 L 11.09375 -6.402344 L 10.535156 -6.71875 L 9.589844 -7.488281 L 9.132812 -7.980469 L 8.644531 -8.644531 L 8.46875 -9.203125 L 8.152344 -9.832031 L 7.875 -11.128906 L 7.875 -13.261719 L 8.050781 -13.894531 L 8.152344 -14.558594 L 8.433594 -15.1875 L 8.644531 -15.816406 L 9.484375 -16.9375 L 11.234375 -18.128906 L 11.6875 -18.300781 L 13.054688 -18.652344 L 14.03125 -18.722656 L 15.710938 -18.511719 L 16.34375 -18.371094 L 16.972656 -18.09375 L 18.058594 -17.324219 L 19.421875 -15.886719 L 19.84375 -14.558594 L 20.15625 -13.894531 L 20.261719 -13.261719 L 20.191406 -11.128906 L 19.914062 -9.832031 L 19.667969 -9.203125 L 19.28125 -8.574219 L 19.074219 -8.050781 L 18.582031 -7.488281 L 16.902344 -6.335938 L 16.273438 -6.160156 L 15.746094 -5.914062 Z M 15.046875 -5.773438 "/></g></g></g><g fill="#fcfbfa" fill-opacity="1"><g transform="translate(153.480837, 209.099986)"><g><path d="M 13.089844 0.421875 L 15.046875 0.386719 L 17.148438 0.105469 L 19.773438 -0.769531 L 20.925781 -1.398438 L 21.453125 -1.820312 L 22.117188 -2.132812 L 23.097656 -2.972656 L 23.550781 -3.605469 L 24.042969 -4.09375 L 25.582031 -6.4375 L 26.105469 -7.769531 L 26.386719 -9.097656 L 26.421875 -9.730469 L 26.597656 -10.429688 L 26.632812 -11.164062 L 26.769531 -12.179688 L 26.667969 -13.929688 L 26.421875 -15.363281 L 25.546875 -17.988281 L 24.882812 -19.28125 L 24.113281 -20.332031 L 23.132812 -21.417969 L 22.117188 -22.292969 L 21.3125 -22.851562 L 20.261719 -23.308594 L 19.738281 -23.691406 L 17.042969 -24.53125 L 15.011719 -24.882812 L 14.066406 -24.917969 L 10.359375 -24.390625 L 7.734375 -23.410156 L 7.207031 -23.027344 L 6.578125 -22.710938 L 5.390625 -21.835938 L 3.675781 -19.84375 L 2.589844 -17.988281 L 2.066406 -16.65625 L 1.46875 -13.964844 L 1.363281 -11.128906 L 1.46875 -10.394531 L 1.644531 -9.761719 L 1.714844 -9.097656 L 2.03125 -7.769531 L 3.640625 -4.585938 L 4.058594 -4.164062 L 4.515625 -3.605469 L 5.039062 -3.113281 L 5.425781 -2.660156 L 6.578125 -1.75 L 9.308594 -0.351562 L 10.324219 0 L 11.09375 0.0703125 L 12.351562 0.351562 Z M 15.046875 -5.773438 L 13.125 -5.773438 L 12.351562 -5.878906 L 11.09375 -6.402344 L 10.535156 -6.71875 L 9.589844 -7.488281 L 9.132812 -7.980469 L 8.644531 -8.644531 L 8.46875 -9.203125 L 8.152344 -9.832031 L 7.875 -11.128906 L 7.875 -13.261719 L 8.050781 -13.894531 L 8.152344 -14.558594 L 8.433594 -15.1875 L 8.644531 -15.816406 L 9.484375 -16.9375 L 11.234375 -18.128906 L 11.6875 -18.300781 L 13.054688 -18.652344 L 14.03125 -18.722656 L 15.710938 -18.511719 L 16.34375 -18.371094 L 16.972656 -18.09375 L 18.058594 -17.324219 L 19.421875 -15.886719 L 19.84375 -14.558594 L 20.15625 -13.894531 L 20.261719 -13.261719 L 20.191406 -11.128906 L 19.914062 -9.832031 L 19.667969 -9.203125 L 19.28125 -8.574219 L 19.074219 -8.050781 L 18.582031 -7.488281 L 16.902344 -6.335938 L 16.273438 -6.160156 L 15.746094 -5.914062 Z M 15.046875 -5.773438 "/></g></g></g><g fill="#fcfbfa" fill-opacity="1"><g transform="translate(181.544495, 209.099986)"><g><path d="M 2.695312 -1.050781 L 2.941406 -0.316406 L 3.953125 0.0703125 L 7.628906 0.0351562 L 8.644531 -0.316406 L 8.992188 -1.085938 L 8.890625 -5.320312 L 8.957031 -6.089844 L 8.957031 -8.257812 L 9.273438 -8.890625 L 10.148438 -9.308594 L 11.199219 -9.097656 L 11.863281 -8.574219 L 13.296875 -6.195312 L 14.171875 -4.375 L 14.59375 -3.78125 L 14.90625 -3.183594 L 15.363281 -2.589844 L 16.308594 -0.769531 L 16.972656 -0.246094 L 18.164062 0 L 22.046875 0 L 22.78125 0.0703125 L 23.375 -0.246094 L 23.550781 -1.050781 L 23.238281 -1.890625 L 22.746094 -2.414062 L 22.398438 -3.007812 L 22.117188 -3.675781 L 21.59375 -4.269531 L 20.925781 -5.460938 L 20.507812 -6.019531 L 20.226562 -6.648438 L 19.808594 -7.277344 L 18.792969 -9.097656 L 17.566406 -10.847656 L 17.566406 -11.617188 L 17.882812 -12.421875 L 18.511719 -12.808594 L 19.527344 -13.824219 L 20.296875 -15.011719 L 20.648438 -15.679688 L 20.820312 -16.308594 L 21.136719 -17.042969 L 21.488281 -18.371094 L 21.523438 -19.039062 L 21.730469 -20.507812 L 21.660156 -21.277344 L 21.800781 -21.941406 L 21.765625 -23.339844 L 21.488281 -24.148438 L 20.753906 -24.53125 L 17.566406 -24.425781 L 16.550781 -24.53125 L 15.710938 -24.113281 L 15.328125 -23.375 L 15.433594 -21.242188 L 15.257812 -19.773438 L 14.90625 -18.371094 L 14.628906 -17.707031 L 14.171875 -17.183594 L 13.753906 -16.621094 L 13.226562 -16.167969 L 12.597656 -15.78125 L 12.003906 -15.503906 L 10.464844 -15.1875 L 9.625 -15.152344 L 8.992188 -15.539062 L 9.027344 -16.273438 L 8.921875 -16.902344 L 9.027344 -21.976562 L 8.921875 -22.640625 L 8.890625 -23.339844 L 8.539062 -24.113281 L 7.910156 -24.460938 L 7.175781 -24.53125 L 6.472656 -24.460938 L 3.640625 -24.53125 L 3.078125 -24.078125 L 2.589844 -23.445312 L 2.589844 -22.710938 L 2.660156 -22.011719 L 2.554688 -19.914062 L 2.589844 -19.246094 L 2.695312 -18.546875 L 2.519531 -17.148438 L 2.625 -16.414062 L 2.695312 -8.015625 L 2.589844 -7.382812 L 2.625 -6.648438 L 2.519531 -5.25 L 2.695312 -3.847656 L 2.625 -3.078125 L 2.660156 -2.378906 L 2.589844 -1.75 Z M 2.695312 -1.050781 "/></g></g></g><g fill="#fcfbfa" fill-opacity="1"><g transform="translate(205.794032, 209.099986)"><g/></g></g><g fill="#fcfbfa" fill-opacity="1"><g transform="translate(215.276881, 209.099986)"><g><path d="M 12.144531 0.351562 L 15.644531 0.351562 L 18.265625 -0.28125 L 20.753906 -1.539062 L 21.835938 -2.378906 L 22.363281 -2.941406 L 22.886719 -3.359375 L 23.308594 -3.847656 L 23.65625 -4.445312 L 23.972656 -5.074219 L 24.390625 -5.5625 L 25.089844 -7.628906 L 25.371094 -8.957031 L 25.40625 -9.554688 L 25.546875 -10.183594 L 25.546875 -10.882812 L 25.617188 -11.546875 L 25.546875 -12.878906 L 25.195312 -13.472656 L 24.53125 -13.824219 L 23.796875 -13.859375 L 23.0625 -13.964844 L 18.335938 -13.859375 L 16.238281 -13.996094 L 14.90625 -13.894531 L 14.207031 -13.542969 L 13.894531 -12.878906 L 13.894531 -9.554688 L 14.207031 -8.992188 L 14.835938 -8.609375 L 15.851562 -8.539062 L 17.601562 -8.679688 L 18.230469 -8.574219 L 18.757812 -8.328125 L 18.863281 -7.734375 L 18.511719 -7.140625 L 17.988281 -6.542969 L 17.496094 -6.160156 L 16.34375 -5.703125 L 14.976562 -5.390625 L 14.066406 -5.355469 L 12.285156 -5.5625 L 10.394531 -6.335938 L 9.34375 -7.3125 L 8.957031 -7.804688 L 8.292969 -9.0625 L 8.015625 -10.078125 L 7.839844 -11.199219 L 7.804688 -13.226562 L 8.050781 -14.59375 L 8.609375 -15.851562 L 9.695312 -17.496094 L 10.917969 -18.371094 L 11.511719 -18.6875 L 12.179688 -18.757812 L 12.773438 -19.039062 L 14.90625 -19.105469 L 16.203125 -18.757812 L 16.867188 -18.476562 L 17.53125 -18.023438 L 17.953125 -17.566406 L 18.40625 -16.972656 L 19.140625 -16.378906 L 19.980469 -16.132812 L 21.066406 -16.097656 L 22.117188 -16.238281 L 23.796875 -16.132812 L 24.671875 -16.519531 L 24.882812 -17.113281 L 24.390625 -18.546875 L 24.078125 -19.175781 L 22.675781 -21.207031 L 21.90625 -21.835938 L 21.347656 -22.363281 L 20.820312 -22.78125 L 18.371094 -24.078125 L 17.636719 -24.214844 L 15.992188 -24.671875 L 12.738281 -24.8125 L 12.039062 -24.777344 L 11.445312 -24.566406 L 10.777344 -24.53125 L 8.082031 -23.550781 L 6.160156 -22.363281 L 4.621094 -20.996094 L 4.164062 -20.4375 L 3.640625 -19.914062 L 3.253906 -19.386719 L 1.960938 -16.761719 L 1.328125 -13.296875 L 1.292969 -12.179688 L 1.46875 -9.730469 L 2.449219 -6.4375 L 3.078125 -5.25 L 3.882812 -4.058594 L 5.285156 -2.589844 L 6.4375 -1.785156 L 8.855469 -0.386719 L 9.449219 -0.210938 L 11.445312 0.140625 Z M 12.144531 0.351562 "/></g></g></g><g fill="#fcfbfa" fill-opacity="1"><g transform="translate(242.080818, 209.099986)"><g><path d="M 2.695312 -1.121094 L 2.941406 -0.351562 L 3.640625 0 L 4.304688 0.0351562 L 5.738281 -0.0703125 L 6.472656 0 L 7.523438 0 L 8.609375 -0.351562 L 8.855469 -1.015625 L 8.921875 -1.75 L 8.785156 -2.484375 L 8.890625 -3.988281 L 8.820312 -6.160156 L 9.132812 -6.859375 L 9.832031 -7.207031 L 10.464844 -7.207031 L 11.09375 -7.242188 L 11.96875 -6.964844 L 12.527344 -6.367188 L 13.4375 -5.144531 L 13.683594 -4.480469 L 14.664062 -2.730469 L 15.117188 -2.066406 L 15.433594 -1.46875 L 15.851562 -0.910156 L 16.550781 -0.28125 L 17.425781 -0.0703125 L 18.6875 0 L 19.457031 -0.0703125 L 20.15625 0 L 21.558594 0 L 22.328125 -0.0703125 L 23.0625 -0.246094 L 23.203125 -0.980469 L 22.746094 -1.855469 L 21.625 -3.570312 L 21.3125 -4.164062 L 20.890625 -4.792969 L 20.542969 -5.425781 L 20.085938 -5.984375 L 19.039062 -7.804688 L 18.933594 -8.644531 L 19.316406 -9.378906 L 20.296875 -10.324219 L 20.71875 -10.917969 L 20.960938 -11.582031 L 21.347656 -12.214844 L 21.59375 -12.808594 L 21.976562 -14.136719 L 22.011719 -16.902344 L 21.835938 -17.566406 L 21.730469 -18.230469 L 21.558594 -18.933594 L 20.613281 -20.855469 L 20.121094 -21.382812 L 19.808594 -21.90625 L 18.058594 -23.238281 L 16.832031 -23.867188 L 13.929688 -24.460938 L 13.054688 -24.53125 L 12.039062 -24.496094 L 11.269531 -24.53125 L 10.570312 -24.460938 L 9.796875 -24.53125 L 9.203125 -24.460938 L 7.105469 -24.53125 L 6.4375 -24.425781 L 5.003906 -24.566406 L 4.339844 -24.460938 L 3.570312 -24.496094 L 2.90625 -24.179688 L 2.625 -23.445312 L 2.519531 -13.648438 L 2.625 -12.632812 L 2.625 -10.882812 L 2.554688 -10.148438 L 2.519531 -8.820312 L 2.625 -8.050781 L 2.519531 -6.613281 L 2.660156 -4.585938 L 2.589844 -3.847656 Z M 9.832031 -12.878906 L 9.238281 -13.191406 L 8.890625 -13.929688 L 8.785156 -17.847656 L 9.203125 -18.546875 L 9.902344 -18.898438 L 10.464844 -18.933594 L 12.386719 -18.898438 L 13.996094 -18.6875 L 15.082031 -18.023438 L 15.433594 -17.496094 L 15.679688 -16.9375 L 15.746094 -15.921875 L 15.644531 -14.976562 L 15.363281 -14.277344 L 14.976562 -13.683594 L 14.558594 -13.261719 L 14.03125 -13.019531 L 11.304688 -12.773438 L 10.601562 -12.878906 Z M 9.832031 -12.878906 "/></g></g></g><g fill="#fcfbfa" fill-opacity="1"><g transform="translate(266.330344, 209.099986)"><g><path d="M 13.089844 0.421875 L 15.046875 0.386719 L 17.148438 0.105469 L 19.773438 -0.769531 L 20.925781 -1.398438 L 21.453125 -1.820312 L 22.117188 -2.132812 L 23.097656 -2.972656 L 23.550781 -3.605469 L 24.042969 -4.09375 L 25.582031 -6.4375 L 26.105469 -7.769531 L 26.386719 -9.097656 L 26.421875 -9.730469 L 26.597656 -10.429688 L 26.632812 -11.164062 L 26.769531 -12.179688 L 26.667969 -13.929688 L 26.421875 -15.363281 L 25.546875 -17.988281 L 24.882812 -19.28125 L 24.113281 -20.332031 L 23.132812 -21.417969 L 22.117188 -22.292969 L 21.3125 -22.851562 L 20.261719 -23.308594 L 19.738281 -23.691406 L 17.042969 -24.53125 L 15.011719 -24.882812 L 14.066406 -24.917969 L 10.359375 -24.390625 L 7.734375 -23.410156 L 7.207031 -23.027344 L 6.578125 -22.710938 L 5.390625 -21.835938 L 3.675781 -19.84375 L 2.589844 -17.988281 L 2.066406 -16.65625 L 1.46875 -13.964844 L 1.363281 -11.128906 L 1.46875 -10.394531 L 1.644531 -9.761719 L 1.714844 -9.097656 L 2.03125 -7.769531 L 3.640625 -4.585938 L 4.058594 -4.164062 L 4.515625 -3.605469 L 5.039062 -3.113281 L 5.425781 -2.660156 L 6.578125 -1.75 L 9.308594 -0.351562 L 10.324219 0 L 11.09375 0.0703125 L 12.351562 0.351562 Z M 15.046875 -5.773438 L 13.125 -5.773438 L 12.351562 -5.878906 L 11.09375 -6.402344 L 10.535156 -6.71875 L 9.589844 -7.488281 L 9.132812 -7.980469 L 8.644531 -8.644531 L 8.46875 -9.203125 L 8.152344 -9.832031 L 7.875 -11.128906 L 7.875 -13.261719 L 8.050781 -13.894531 L 8.152344 -14.558594 L 8.433594 -15.1875 L 8.644531 -15.816406 L 9.484375 -16.9375 L 11.234375 -18.128906 L 11.6875 -18.300781 L 13.054688 -18.652344 L 14.03125 -18.722656 L 15.710938 -18.511719 L 16.34375 -18.371094 L 16.972656 -18.09375 L 18.058594 -17.324219 L 19.421875 -15.886719 L 19.84375 -14.558594 L 20.15625 -13.894531 L 20.261719 -13.261719 L 20.191406 -11.128906 L 19.914062 -9.832031 L 19.667969 -9.203125 L 19.28125 -8.574219 L 19.074219 -8.050781 L 18.582031 -7.488281 L 16.902344 -6.335938 L 16.273438 -6.160156 L 15.746094 -5.914062 Z M 15.046875 -5.773438 "/></g></g></g><g fill="#fcfbfa" fill-opacity="1"><g transform="translate(294.394002, 209.099986)"><g><path d="M 10.324219 0.28125 L 12.003906 0.421875 L 13.753906 0.351562 L 15.152344 0.0351562 L 15.886719 -0.246094 L 16.585938 -0.421875 L 17.148438 -0.769531 L 17.777344 -1.050781 L 18.335938 -1.433594 L 19.914062 -2.835938 L 20.296875 -3.464844 L 20.753906 -3.988281 L 20.960938 -4.6875 L 21.3125 -5.285156 L 21.558594 -5.949219 L 21.800781 -9.484375 L 21.695312 -12.316406 L 21.835938 -13.054688 L 21.835938 -13.683594 L 21.695312 -14.382812 L 21.660156 -15.046875 L 21.730469 -15.78125 L 21.695312 -16.761719 L 21.765625 -17.847656 L 21.730469 -18.617188 L 21.835938 -19.28125 L 21.730469 -19.980469 L 21.765625 -22.816406 L 21.660156 -23.410156 L 21.382812 -24.179688 L 20.261719 -24.496094 L 16.972656 -24.53125 L 16.203125 -24.214844 L 15.851562 -23.445312 L 15.886719 -20.015625 L 15.816406 -19.316406 L 15.851562 -17.953125 L 15.78125 -17.21875 L 15.886719 -16.484375 L 15.78125 -13.71875 L 15.921875 -13.089844 L 15.851562 -12.316406 L 15.886719 -11.058594 L 15.816406 -10.359375 L 15.851562 -8.574219 L 15.710938 -7.453125 L 15.398438 -6.789062 L 15.082031 -6.300781 L 14.523438 -5.773438 L 13.125 -5.320312 L 12.179688 -5.25 L 11.023438 -5.320312 L 10.394531 -5.496094 L 9.625 -5.878906 L 9.097656 -6.335938 L 8.679688 -6.824219 L 8.46875 -7.558594 L 8.398438 -13.71875 L 8.292969 -14.417969 L 8.257812 -16.585938 L 8.328125 -17.21875 L 8.328125 -20.015625 L 8.222656 -21.03125 L 8.222656 -21.695312 L 8.398438 -22.746094 L 8.398438 -23.480469 L 8.015625 -24.148438 L 7.175781 -24.460938 L 3.5 -24.496094 L 2.800781 -24.113281 L 2.484375 -23.410156 L 2.484375 -21.3125 L 2.308594 -20.71875 L 2.449219 -19.246094 L 2.34375 -17.917969 L 2.519531 -15.816406 L 2.378906 -15.152344 L 2.484375 -14.382812 L 2.414062 -13.71875 L 2.449219 -13.019531 L 2.378906 -12.351562 L 2.484375 -10.953125 L 2.449219 -8.433594 L 2.554688 -7.417969 L 2.554688 -6.683594 L 2.765625 -5.984375 L 2.871094 -5.320312 L 3.078125 -4.65625 L 3.78125 -3.464844 L 4.722656 -2.308594 L 5.179688 -1.855469 L 6.367188 -1.15625 L 6.894531 -0.734375 L 7.558594 -0.453125 L 8.363281 -0.210938 L 8.890625 0.0703125 L 9.660156 0.105469 Z M 10.324219 0.28125 "/></g></g></g><g fill="#fcfbfa" fill-opacity="1"><g transform="translate(318.538562, 209.099986)"><g><path d="M 2.589844 -1.085938 L 2.871094 -0.351562 L 3.605469 -0.0703125 L 4.304688 0 L 6.367188 -0.0351562 L 7.140625 0.0351562 L 7.875 0.0351562 L 8.574219 -0.351562 L 8.890625 -1.085938 L 8.921875 -2.484375 L 8.855469 -3.148438 L 8.957031 -3.78125 L 8.890625 -4.550781 L 8.890625 -5.285156 L 9.132812 -5.878906 L 10.078125 -6.230469 L 10.847656 -6.335938 L 11.898438 -6.230469 L 13.71875 -6.265625 L 15.152344 -6.542969 L 17.183594 -7.140625 L 18.371094 -7.875 L 18.933594 -8.292969 L 19.980469 -9.308594 L 21.101562 -10.988281 L 21.417969 -11.617188 L 21.660156 -12.25 L 21.976562 -13.683594 L 22.046875 -14.3125 L 22.082031 -16.378906 L 21.453125 -19.105469 L 20.753906 -20.367188 L 20.296875 -20.960938 L 19.84375 -21.453125 L 19.457031 -21.976562 L 18.863281 -22.5 L 17.8125 -23.203125 L 16.550781 -23.867188 L 15.816406 -24.007812 L 15.117188 -24.285156 L 14.488281 -24.425781 L 4.023438 -24.460938 L 3.078125 -24.148438 L 2.730469 -23.480469 L 2.660156 -22.746094 L 2.660156 -21.3125 L 2.554688 -20.683594 L 2.554688 -20.015625 L 2.660156 -19.28125 L 2.660156 -15.710938 L 2.589844 -15.011719 L 2.660156 -14.382812 L 2.589844 -13.613281 L 2.695312 -12.179688 L 2.554688 -11.234375 L 2.660156 -10.183594 L 2.589844 -9.519531 L 2.589844 -8.050781 L 2.695312 -7.382812 L 2.589844 -5.984375 L 2.695312 -3.78125 L 2.519531 -3.078125 L 2.660156 -2.414062 L 2.554688 -1.75 Z M 10.007812 -11.933594 L 9.34375 -12.25 L 8.921875 -12.949219 L 8.855469 -17.8125 L 9.273438 -18.582031 L 9.972656 -18.863281 L 10.847656 -18.933594 L 13.648438 -18.792969 L 14.242188 -18.476562 L 14.769531 -18.09375 L 15.328125 -17.566406 L 15.679688 -16.972656 L 15.992188 -15.328125 L 15.609375 -13.71875 L 14.804688 -12.738281 L 14.242188 -12.351562 L 13.683594 -12.039062 L 10.8125 -11.863281 Z M 10.007812 -11.933594 "/></g></g></g><g fill="#fcfbfa" fill-opacity="1"><g transform="translate(341.563364, 209.099986)"><g><path d="M 10.148438 0.28125 L 11.164062 0.386719 L 12.285156 0.351562 L 15.710938 -0.316406 L 17.53125 -1.292969 L 18.652344 -2.066406 L 19.632812 -3.183594 L 20.332031 -4.304688 L 20.613281 -4.933594 L 20.820312 -5.632812 L 20.925781 -6.265625 L 20.960938 -8.433594 L 20.855469 -9.132812 L 20.683594 -9.796875 L 19.980469 -11.09375 L 19.140625 -12.179688 L 18.546875 -12.667969 L 16.691406 -13.507812 L 13.824219 -14.207031 L 10.289062 -14.664062 L 8.820312 -15.1875 L 8.292969 -15.46875 L 7.734375 -16.027344 L 7.699219 -16.972656 L 7.804688 -17.882812 L 8.1875 -18.371094 L 8.785156 -18.828125 L 9.273438 -19.039062 L 9.902344 -19.175781 L 12.144531 -19.246094 L 12.914062 -18.96875 L 13.4375 -18.546875 L 14.59375 -17.324219 L 15.679688 -16.972656 L 17.988281 -16.902344 L 18.617188 -16.972656 L 19.28125 -16.902344 L 19.945312 -17.324219 L 20.261719 -17.988281 L 19.980469 -19.351562 L 19.421875 -20.613281 L 18.96875 -21.171875 L 18.617188 -21.730469 L 18.164062 -22.257812 L 15.921875 -23.796875 L 13.996094 -24.460938 L 13.261719 -24.601562 L 12.632812 -24.671875 L 11.863281 -24.847656 L 9.902344 -24.8125 L 7.140625 -24.25 L 6.507812 -24.007812 L 5.949219 -23.65625 L 5.390625 -23.445312 L 4.6875 -23.027344 L 4.199219 -22.570312 L 3.570312 -22.152344 L 3.183594 -21.558594 L 2.730469 -21.101562 L 2.484375 -20.472656 L 2.132812 -19.914062 L 1.644531 -17.882812 L 1.679688 -15.539062 L 1.925781 -14.558594 L 2.378906 -13.332031 L 3.253906 -12.179688 L 4.234375 -11.269531 L 5.460938 -10.535156 L 7.453125 -9.867188 L 8.714844 -9.589844 L 11.582031 -9.378906 L 12.214844 -9.273438 L 12.914062 -9.238281 L 14.171875 -8.714844 L 14.664062 -8.292969 L 14.835938 -7.382812 L 14.628906 -6.472656 L 14.066406 -5.984375 L 13.507812 -5.667969 L 12.214844 -5.285156 L 11.234375 -5.25 L 10.183594 -5.320312 L 9.378906 -5.527344 L 8.855469 -5.773438 L 8.222656 -6.160156 L 7.699219 -6.648438 L 7.175781 -7.347656 L 6.472656 -7.628906 L 3.816406 -7.699219 L 3.113281 -7.628906 L 2.414062 -7.664062 L 1.714844 -7.347656 L 1.46875 -6.613281 L 1.539062 -5.84375 L 1.679688 -5.214844 L 2.238281 -3.816406 L 3.113281 -2.730469 L 4.128906 -1.714844 L 4.722656 -1.328125 L 7.242188 -0.175781 L 8.015625 -0.0703125 L 8.679688 0.175781 Z M 10.148438 0.28125 "/></g></g></g></svg>